<svg xmlns="http://www.w3.org/2000/svg" viewBox="0 0 545 981"><defs><style>.cls-1{opacity:0.61;}.cls-2{fill:#023308;}.cls-2,.cls-3,.cls-4,.cls-5,.cls-6{stroke:#000;stroke-miterlimit:10;}.cls-3{fill:#380b1c;}.cls-4{fill:#074f13;}.cls-5{fill:#6b6d6d;}</style></defs><g id="Слой_1" data-name="Слой 1" class="cls-1"><path class="cls-2" d="M167.65,459l-16,40-11,25,100,39,8-10h2l17,17,81-53-35-28,5-12-9-6,2-9-142-15Z"/><polygon class="cls-2" points="42.65 755.03 68.65 781.03 95.65 784.03 101.65 778.03 116.83 769.53 123.65 751.03 157.65 714.03 178.65 702.03 195.65 679.03 197.65 653.03 203.65 634.03 209.65 619.03 230.65 583.03 238.65 567.03 239.78 562.8 244.65 544.55 148.68 508.53 120.65 597.03 88.65 664.03 63.65 691.03 46.65 708.03 42.65 723.25 42.65 739.4 36.65 742.03 42.65 755.03"/><path class="cls-2" d="M256.65,549l17,27q2,5.51,4,11c.67,3,1.33,6,2,9l19,16,27,23,3,18,11,5s-1,11.92,0,12.46-7,24.54-7,24.54-7,15-4,19,6,28,6,28l5.09,7.83L333.65,761s2,8,4,9c1.33.67,9.25,3.09,14.72,5.23,2.79,1.08,4.94,2.1,5.28,2.77,1,2,13,6,14.5,6s26.5-7,26.5-7l20-8,6-9-9-23s2-10,2-14-1.41-48.76-1.41-48.76L420.65,617s-18-25-18-26-2-4-3-9-12.4-17.52-12.4-17.52L337.65,512l-16-9Z"/><polygon class="cls-3" points="357.65 816.03 351.65 760.03 414.34 760.03 402.65 821.03 408.65 824.03 411.65 829.03 431.65 840.03 451.65 842.03 457.65 861.03 457.65 875.33 457.65 877.7 397.65 881.03 385.65 871.03 379.65 871.03 378.65 877.03 351.65 875.8 348.65 855.84 351.65 854.03 356.65 829.03 352.65 823.03 357.65 816.03"/><polygon class="cls-3" points="27.66 793.29 43.1 739.13 101.22 762.65 67.5 814.81 71.94 819.84 72.84 825.6 87.26 843.3 105.05 852.65 103.48 872.52 98.12 885.77 97.23 887.97 40.36 868.55 32.99 854.78 27.43 852.53 24.25 857.72 -0.32 846.45 4.39 826.82 7.85 826.27 21.86 804.97 20.4 797.91 27.66 793.29"/><path class="cls-4" d="M359.65,255V268l7,11.07,3,31-18,53-11,41-4,22-2,34.88H314.54L302.65,478l-127-13-14-24,7-11-7-6.67,7-13.33-7-8a503.87,503.87,0,0,0,15-71c1.71-12.65,2.42-21.73,6-35a172.8,172.8,0,0,1,22-49l13-14V215l15-9,22,3,27,14s19,21,21,22,19,31,19,31l5,12,14-10,10-14,4-7Z"/><path class="cls-4" d="M170.65,315l6-31,10-27,15-7,20-10,27,20,6,40-3,28-10,9-8,10-6,5,4,4,23-3s20-5,22-5,21,1,21,1l7-5-5,24-4,14H286l-20.37,10-23,11-20,8s-22,8-26,8-17-2-20-4-15-13-15-13V366.81l6-27.78-6-13.09Z"/><path class="cls-4" d="M380.65,282l-21-16.45-14,19.45-17,31,2,32,7,26,4.62,24,6.38,19.66,3,16.37c2,4.63,5.48,10.86,12,15,7.38,4.69,13.18,3.29,34,3,23-.31,26.12,1.27,39-1,19.72-3.46,23.63-9.12,25-12a17.49,17.49,0,0,0,1-11,13.57,13.57,0,0,0,2-9c-3.09-17.4-48.39-8.63-70-33.69l-13-76.31h0Z"/><path class="cls-5" d="M378.65,213.17q2.5-6.51,5-13l-43-13-14,5c-2,.4-5.12,1.07-9,2-9,2.15-8.37,2.48-12,3-5,.7-7.08.2-10,2a12.64,12.64,0,0,0-4,4l12,11,35.13,26,9.87,9.86h8.18l.16.14v-3l8-7c.67-1,1.33-2,2-3a146.38,146.38,0,0,0,9-16C376.87,218.5,377.76,215.84,378.65,213.17Z"/><path class="cls-4" d="M259.65,168l104.91,72-4.66,11.81,1,18.09s-20.25,25.1-23.25,27.26-21-1.79-21-1.79l-37-53.37-44-27Z"/><path class="cls-6" d="M255.65,176c1.73,8.43,13.38,9.89,26,17,9.51,5.36,39,9.92,56,10a71.13,71.13,0,0,1,30,7s0,2,12-1,12-17,12-17a89.85,89.85,0,0,0,.45-25.94c-1.07-8-2.86-12.2-4.45-15.06a79.7,79.7,0,0,0-5-7c-5.26-7-7.95-10.52-11-12-2.07-1-3.39-1.09-7-3-2.36-1.24-10.44-5.87-15-7a54.34,54.34,0,0,0-15-4,66.37,66.37,0,0,0-13,0,92.15,92.15,0,0,0-20,3c-10.09,2.77-14,5.93-15.26,7a30,30,0,0,0-4.74,5l-11,19C269.08,153.15,253.3,164.57,255.65,176Z"/><path class="cls-3" d="M304.65,345.84c12.86,4.75,23.38,9,31,12.19,12.93,5.41,20.44,9,20,12-.21,1.49-2.27,2.43-4,3,2.48,3.32,2.46,5,2,6-1.21,2.53-7.15,3.19-7.15,3.19,1.62,1,2.46,2.55,2.15,3.81a3.4,3.4,0,0,1-2,2c-2.64,1.34-5.55.18-6.33-.16.83.74,2.83,2.67,2.33,4.16-.59,1.8-4.45,1.94-6,2,0,0-16.7.27-46-16l5-27Z"/><path class="cls-3" d="M445.89,411.06c13.7.37,25,1,33.28,1.59,14,1,22.23,1.93,22.79,4.94.27,1.48-1.37,3-2.82,4.13,3.41,2.34,3.95,4,3.82,5-.34,2.78-5.75,5.31-5.75,5.31,1.86.44,3.15,1.63,3.26,2.92a3.42,3.42,0,0,1-1.25,2.54c-2.08,2.12-5.2,2-6.05,1.88,1,.43,3.53,1.62,3.55,3.19,0,1.9-3.6,3.27-5,3.82,0,0-15.74,5.62-48.71-.38L439,418.87Z"/></g></svg>