<svg xmlns="http://www.w3.org/2000/svg" viewBox="0 0 644 946"><defs><style>.cls-1{opacity:0.61;}.cls-2{fill:#3c3c3c;}.cls-3{fill:#222;}.cls-4{fill:#444;}.cls-5{fill:#242424;}.cls-6{fill:#191919;}.cls-7{fill:#373737;}.cls-8{fill:#252525;}.cls-9{fill:#221d19;}.cls-10{fill:#141314;}.cls-11{fill:#282828;}.cls-12{fill:#221c19;}.cls-13{fill:#3b322b;}.cls-14{fill:#241e1a;}.cls-15{fill:#2c2b2a;}.cls-16{fill:#171617;}.cls-17{fill:#202020;}.cls-18{fill:#313131;}.cls-19{fill:#272727;}.cls-20{fill:#2f2821;}.cls-21{fill:#484848;}.cls-22{fill:#332411;}.cls-23{fill:#3b3b3b;}.cls-24{fill:#9a6e1e;}.cls-25{fill:#805519;}.cls-26{fill:#292725;}.cls-27{fill:#bd942c;}.cls-28{fill:#d69f24;}.cls-29{fill:#e9e9e9;}</style></defs><g id="Слой_1" data-name="Слой 1" class="cls-1"><path class="cls-2" d="M461.33,580.14a3.48,3.48,0,0,1,.17.61c0,.09-.14.19-.22.29-.65.93-1.71,1.78-1.88,2.79-1.85,10.89-4,21.76-5.15,32.73-.69,6.61.89,13.45.3,20.09-.9,10.16-2.93,20.22-4.23,30.35-.74,5.78-3.75,11.33-1.09,17.51s4.49,12.74,7,19c.5,1.22,2.62,1.78,4,2.64q1.69,8.55,3.41,17.09c-5.08.49-6.42,2-5.24,5.77a1.58,1.58,0,0,1-.57.52c-3.36-3.44-6.8-4.71-11.74-2.51a196.77,196.77,0,0,1-20.58,7.39c-8.65,2.75-17.1,7.16-26.4,1-5.93-4-11.39-8-16.05-15.29,3.82.52,6.36.38,8.48,1.26,4,1.64,5.72,0,7.17-3.42,4.28-10.23,8.77-20.36,13.1-30.56,1.93-4.55,3.73-9.16,5.45-13.79,1.27-3.45,2.3-7,3.44-10.47l-1.2-.35c-7.75,14-9.46,31-22.26,43.86C391.94,695.91,387,685.92,382,676c-7.08-14-.45-26.07,4.59-38.6.76.37,1.17.43,1.3.66,5.8,10.09,6,10.12,14.39,1.32.66-.69,1.16-1.53,2.54-3.39-2.28-1.81-4.64-3.42-6.68-5.35-3.59-3.41-8.19-6.46-10.13-10.68-2.08-4.54-5.58-5.94-9.12-8-.95-.55-1.87-1.18-2.75-1.74,4-9.55,3.93-9.85,12.08-11.53,4.6-.94,7.53-3.31,9.2-7.35,3.6-8.71,6.91-17.54,10.62-26.21.57-1.33,2.47-2.52,4-2.92,2.8-.75,6.57.14,8.51-1.42,5.9-4.76,11.12-10.36,16.6-15.63l1.75-.42a1.37,1.37,0,0,1,.51.26l.7,1.1c.58.67,1.17,1.34,1.76,2-.05,6.6,5.12,10.11,8.58,14.65,1.3,1.71,2.46,3.52,3.68,5.29l2.88,4.08.26.13,0,.28Q459.27,576.32,461.33,580.14Z"/><path class="cls-2" d="M353,435.23c6.53,2.18,7.18,2.7,4.94,9.15-1.81,5.18-.5,8.44,3.71,11.33a36.2,36.2,0,0,1,6.06,5.12c5.42,5.86,11.12,11.21,19.35,12.77l3.1,1.39-.05-.05c-1.08,2.05-1.76,4.51-3.33,6.06-3,3-6.48,5.41-9.76,8.07l-12,11c-2.09,3.59-4.22,7.16-6.24,10.79a42.12,42.12,0,0,0-1.85,4.24c0,.65,0,1.29,0,1.94h-2l-7,6-3,2.95c-2.59,4-5.31,1.25-7.57-.17-6.57-4.09-13-8.36-19.31-12.89-1.42-1-1.9-3.36-2.93-5.34l-17.13,5c3.57-6.8.68-10.9-2.74-14.54-5-5.33-10.32-10.36-15.54-15.47-.23-.22-.85,0-1.62,0,2.7,4.62,5.36,8.92,7.79,13.36,4.82,8.82,5.93,17.44-1.09,25.93-1.12,1.35-.61,4.05-.85,6.13-2.08,2.33-4.31,4.55-6.16,7.06-.68.93-.64,2.53-.61,3.82.11,4.86-1.72,7.79-7,7.54-2.4-2.72-4.56-5.72-7.26-8.12-4.11-3.64-8.59-6.87-12.91-10.27-1.86-2.68-3.68-5.38-5.59-8-3.95-5.48-7.76-11.07-12-16.35-3.25-4.09-7-7.77-10.75-11.85,4.74-2.54,8.86-4.81,13.05-6.94,1.26-.65,2.84-1.52,4-1.26a92.94,92.94,0,0,1,11.42,3.28c5.1,1.78,10.11,3.83,15.16,5.76l.7-1.41a223.48,223.48,0,0,0-46-25.93c5.78-3.15,11.57-7.23,17.64-7.73s12.48,2.59,18.73,4.1l.57-1.28c-9.35-5.64-16.86-14.34-28.89-16.7,2.75-2,6.11-5,8.58-4.33,6.85,1.74,11.82-1.19,17.07-4.38a35.38,35.38,0,0,1,7.18-3.45c2-.65,4.58-1.35,6.4-.67,10.24,3.8,20.39,7.89,30.46,12.13,7.46,3.14,14.64,7,22.18,9.89,3.19,1.24,6.56,1.51,7.33,6.55,8.49-6.58,16.32-13.38,24-20.34C352.33,438.27,352.51,436.55,353,435.23Zm-34.55,42c-1.24-.42-3.13-.54-4.22-1.53-9.91-9-19.43-18.52-29.6-27.26-5.27-4.52-11.61-7.8-17.47-11.64l-1,1.09c.65,1.43,1,3.22,2,4.25,7.2,7,14.15,14.42,22,20.7,10,8,20.78,15.12,31.66,22.94,10.26-1.92,14.27-11.69,19.77-20.12C333.38,468.28,324.81,470,318.49,477.19ZM354.87,482c-13.67,7.26-24.8,16-36.09,24.7,8.58-2.48,16.82-5.72,25.21-8.49C351.08,495.85,353.81,490.66,354.87,482Z"/><path class="cls-3" d="M353,435.23c-.53,1.32-.71,3-1.67,3.9-7.68,7-15.51,13.76-24,20.34-.77-5-4.14-5.31-7.33-6.55-7.54-2.94-14.72-6.75-22.18-9.89-10.07-4.24-20.22-8.33-30.46-12.13-1.82-.68-4.38,0-6.4.67a35.38,35.38,0,0,0-7.18,3.45c-5.25,3.19-10.22,6.12-17.07,4.38-2.47-.62-5.83,2.31-8.58,4.33,12,2.36,19.54,11.06,28.89,16.7l-.57,1.28c-6.25-1.51-12.64-4.6-18.73-4.1s-11.86,4.58-17.64,7.73a223.48,223.48,0,0,1,46,25.93l-.7,1.41c-5-1.93-10.06-4-15.16-5.76a92.94,92.94,0,0,0-11.42-3.28c-1.21-.26-2.79.61-4,1.26-4.19,2.13-8.31,4.4-13.05,6.94,3.74,4.08,7.5,7.76,10.75,11.85,4.21,5.28,8,10.87,12,16.35,1.91,2.64,3.73,5.34,5.58,8l0,0c-5.62-3.76-11.4-7.3-16.8-11.34A24.9,24.9,0,0,1,223,498.17l-10.9-5c.27-1.77.42-3.58.83-5.32,2-8.56,3.62-9.17,10.62-4.13.44.31.62,1,.92,1.51l.78-.25c-.3-2.85-.59-5.69-.88-8.54l-1.51,0c-.58,1.2-1.17,2.39-1.75,3.59l-1.55.26c-.51-1.88-1.46-3.77-1.4-5.63.06-1.46,1.36-2.88,2.1-4.29-.9-1.72-2-3.92-2.8-5.37-3.11.49-5.65.76-8.12,1.34-.84.2-1.49,1.18-2.23,1.8l-8.12-1c-1.32,0-2.65-.06-4,0-3.62.14-4.32-1.59-3-4.64,3.63-9.39,7.33-18.76,10.82-28.2.61-1.64.15-3.64.57-5.38s.91-4,2.1-5.34c4.63-5.33,4.87-9.85.36-14.92s-4.59-6.14-1-12.15c1.25-2.09,2.27-4.31,3.39-6.47,1.39-.08,2.88-.5,4.17-.16,7.1,1.87,14.09,4.23,21.25,5.83,4.53,1,9.28,1,13.07,1.33,1.32-3.63,2.28-6.28,3.25-8.92l1.2,7.95-3.25.79,2.08,2.1,2.07-2,2.94,1.23c1.1,1,2.08,2.56,3.33,2.82a87.44,87.44,0,0,0,9.73,1.06,36.68,36.68,0,0,0,2.89-5,65.43,65.43,0,0,0,1.87-7l5.23-6L275,403.79c6.24-5.1,12.15-3.44,18.05-.78.28.13.66,0,1,0,1,6.28,3.88,1.14,5.93,1,.71.12,1.8.6,2,.32,3.78-4.32,7.66-3.51,11.71-.47a7.7,7.7,0,0,0,2.09.78c2.44-3.14,2.44-3.14.18-9.53L322,384h1.08c-.64,4.22-1.42,8.42-1.77,12.65-.06.71,1.78,1.57,2.75,2.36,4.62,1.29,3.3-3.39,5-5,1,4.11,2,8.22,3.19,13h4.81c.26,1,.86,2.12.73,3.1-.44,3.33-1.14,6.61-1.75,9.92l-39.72-2.45-2,13.65c15.05.61,29.56,1.11,44.07,1.86,3.29.17,4.72-1.08,5.61-4.07a55.61,55.61,0,0,1,3.18-7.1h-5.51c.66-.82,1-1.31,1.42-1.79l0-1.06c4.72-2.15,9.16-5.56,14.88-3.25.24.1.77-.51,1.16-.79.63-1.28,1.71-2.52,1.8-3.84.26-3.72.11-7.46.13-11.2l3.15-1.87c-.05.88-.1,1.76-.14,2.64l1,1.25v14.9l10.12,3.6c-4.89,4.2-10.38,2.17-15.51,1-4.07-.91-6-.09-6.18,4.11Q353.28,430.45,353,435.23ZM233.14,423l20.93,2.12a8.43,8.43,0,0,0,2.21.9c10,.89,20,1.72,30.62,2.61l2.34-12.38-59.39-5.68c-.74,3-1.31,4.88-1.66,6.81C227.49,421.25,228.64,423.62,233.14,423Zm-5.33,57-.23-.31-.28.25.38.4Z"/><path class="cls-4" d="M433.55,150.21c-1.2,4.23-2.08,8.6-3.7,12.67-1.3,3.25-3.52,6.14-5.33,9.18L411.08,168a8.44,8.44,0,0,0-.87,0l-3.07-2,0,0q-3-3.48-6-7v0l-1-1h0c-3.73-5.35-9.23-7.43-15.31-9.12-8.1-2.27-17.89-.81-23.67-11.19a49.31,49.31,0,0,0-1,4.84c-.9,9.9-12.84,16.51-21.82,12.13-3.53-1.72-5.13-4.35-5.33-8.23-.08-1.55-1.13-3-1.74-4.56l0-1.84,1.39-1.55a7.25,7.25,0,0,0-2.41-.56c-2.07.25-4.11.73-6.16,1.13l-.92-.11c-2.6-5.41-1-9.43,3.51-13.21,3-2.47,3.55-6.22,1.37-9.88,0-.47,0-.93,0-1.39-1-2.82-2-5.64-3-8.45v-2c-.23-2.49-.43-5-.7-7.47-.14-1.27-.41-2.51-.62-3.77,5.16-3.18,9.95-7.67,15.56-9.31,29.66-8.65,56.54-3.86,79.77,17.74,11.52,10.71,15.28,24,15,39C430.82,143.19,430.56,148.17,433.55,150.21ZM422.07,139l0,0-6.16-2.7c-5.89,3-5.2,8-4.63,12.79.51,4.29,4.38,4,7.27,4.37,1,.14,2.33-1.73,3.5-2.68.58-3,1.15-6,1.73-9C423.22,140.79,422.64,139.87,422.07,139Zm-70.91,12.79c6.49-5.3,5.56-12.5-2-15.42s-13.15.25-12.86,7a7.17,7.17,0,0,0,5.19,8.93C344.4,153.11,347.91,152,351.16,151.74ZM353,130.92c-3.28-3.07-13.36-3-17.39,0Z"/><path class="cls-2" d="M196.72,679.08l-4.58,5.08-2,2.22-.79.85c-3.2,2.16-6.53,4.14-9.55,6.52-11.83,9.34-24.18,18.14-33.95,32.11l12.54-5.44-2.24,14-1.07.76c-.55-.31-1.14-.94-1.64-.87-6.5.83-13,1.91-19.48,2.61-5.79.63-11.76,1.06-16.51-3.25a132.26,132.26,0,0,1-13-12.91c-3-3.55-6.06-7.69-7.12-12-1.42-5.85-1.29-12.17-1.09-18.27a10.26,10.26,0,0,1,3.38-7.07,94.42,94.42,0,0,1,14.07-8.25c5.65-2.86,11.76-4.91,17.18-8.13,3.27-1.94,5.29-5.92,8.47-8.11,3.67-2.53,5.32-7.87,10.77-7.86l20,15.08,1,1,4.06,3.91a17.32,17.32,0,0,1,3.28,2.83c4.78,6.8,6.71,7.57,15,5.61A32.1,32.1,0,0,1,196.72,679.08Z"/><path class="cls-5" d="M437.13,545.13c-5.48,5.27-10.7,10.87-16.6,15.63-1.94,1.56-5.71.67-8.51,1.42-1.52.4-3.42,1.59-4,2.92-3.71,8.67-7,17.5-10.62,26.21-1.67,4-4.6,6.41-9.2,7.35-8.15,1.68-8.09,2-12.08,11.53.88.56,1.8,1.19,2.75,1.74,3.54,2.07,7,3.47,9.12,8,1.94,4.22,6.54,7.27,10.13,10.68,2,1.93,4.4,3.54,6.68,5.35-1.38,1.86-1.88,2.7-2.54,3.39-8.36,8.8-8.59,8.77-14.39-1.32-.13-.23-.54-.29-1.3-.66-5,12.53-11.67,24.64-4.59,38.6,5,9.94,9.95,19.93,15.28,30.61,12.8-12.84,14.51-29.9,22.26-43.86l1.2.35c-1.14,3.49-2.17,7-3.44,10.47-1.72,4.63-3.52,9.24-5.45,13.79-4.33,10.2-8.82,20.33-13.1,30.56-1.45,3.46-3.2,5.06-7.17,3.42-2.12-.88-4.66-.74-8.48-1.26,4.66,7.3,10.12,11.34,16.05,15.29,9.3,6.21,17.75,1.8,26.4-1A196.77,196.77,0,0,0,446.12,727c4.94-2.2,8.38-.93,11.74,2.51q-3.69,2.9-7.4,5.74l-1.47-.15c-1.71-4.2-4.59.17-6.73-.92l-9.21,2.94-5.95,1-2.06,1H423.1l-10,2h-15l-1.9-2.87-.94.68c.29.73.57,1.46.85,2.19-.59,1.3-1.18,2.6-1.76,3.9.15-6.61-4.64-8.37-9.65-10.36-12.82-5.09-14.36-8-8.51-20.48,2.93-6.25,2.34-11.37.11-17.34a188.72,188.72,0,0,1-5.91-20c-1.82-7.14.88-13.76,2.93-20.43,2.62-8.55,5.28-17.08,7.6-25.71.62-2.29.17-4.9.07-7.36-.11-2.63-1.22-4.17-4.21-4.4-5.49-.41-8-3.79-8.52-9.14-.35-3.83-1.08-7.63-1.64-11.44l11.48-9.63-18.21-16.31-8.25,9.82-13.61-12c2.6-3.37,4.58-8.51,7.94-9.68,4.82-1.68,5.93-4.69,7.1-8.51v0l1-1,0,0,1-1,0,0,1-1.07.92-.93c3-2.33,6-4.62,8.93-7,2.43-2,4.78-4,7.16-6-.87,1.68-1.46,3.59-2.64,5-4.27,5.17-8.84,10.11-13,15.34-.77,1-1,3.38-.33,4.29a88.07,88.07,0,0,0,7,7.81l11-10.47c2.46,6.91-4.45,9.38-6.82,14.34l9.56,9.6a11,11,0,0,0,1.56-.82c3.52-2.75,5.59-8.19,11.63-6.26.36-1.43,1.51-3.55,1-4.17-4.48-5.06-9.28-9.83-14-14.69l9.09-10,15,18.44c.59-2.34.95-3,.78-3.21-5.25-5.1-10.55-10.15-15.84-15.21,6.51-4.07,6.33-5,.06-9.69-4.53-3.36-8.61-3.89-13.06-.34l-1-1,0-1.94c.71-.37,1.42-.71,2.11-1.11q6-3.46,12-7h0l1,1,0,0,1,0a44.86,44.86,0,0,0,3.73-3.26c1.87-2,3.52-2.1,5.46-.07s2.61,3.81.57,6.06c-1,1.06-1.86,2.19-3.23,3.83,1.73.86,3.28,2.26,4.09,1.92,3.56-1.49,5.25.88,7.23,2.85,2.24,2.23,4.36,4.59,6.72,6.68,3.19,2.83,5.09,5.78,1.9,9.52,3,4.59,5.53,3.8,9,.71,3.71-3.26,8.28-5.55,12.47-8.26ZM380.4,586.78c4.74.4,7.82.77,10.91.86,1.18,0,3.05-.21,3.46-.95,2.73-5.05,5.16-10.27,7.68-15.44l-.93-.36Z"/><path class="cls-5" d="M205.86,383c.5-1.33,1-2.66,1.48-4,.25-.66.49-1.33.73-2,1.08-3.87.4-6.91-3.35-9.25a6.28,6.28,0,0,1-2.25-4.63c-.11-11.1-.35-22.22.26-33.28.49-8.94,2.19-17.8,3.15-26.72a9.81,9.81,0,0,0-.86-5.34c-3.9-7.41-1.91-13.54,4.07-18.51,3.36-2.79,4.09-6.05,3.89-10-.82-16.5,4.71-31.19,13.88-44.45,3.21-4.64,8.25-8.06,12.62-11.85a85.46,85.46,0,0,1,7.27-5.13l5.2,0c5.36.2,11-.61,15.06,4.22-10.57-.47-18.81,5.38-27.39,10.21-.82.46-1.3,1.86-1.56,2.91-1.4,5.78-3.22,11.54-3.89,17.41-.88,7.64-.67,15.4-1.3,23.08-.13,1.62-1.52,4-2.9,4.51-7.14,2.79-11.3,8.4-15.17,14.5-1.62,2.56-2.12,4.46.25,7,2.65,2.84,6.54,6.24,6.59,9.44.08,5.91-1.71,12.05-3.7,17.75-3.67,10.58-8.07,20.89-12.06,31.36-.34.89-.25,2.67.31,3.06,7.68,5.36,15.93,10.43,25.58,8.67,8-1.45,15.55-5.35,24-4a20.56,20.56,0,0,0,4,0c6.35-.29,9.8-3.62,11.37-9.77,1.07-4.2,3.07-8.18,4.66-12.25.43,2.36.85,4.72,1.28,7.09l.95,1.92h0c1.23,5.25,2.65,10.48,3.62,15.78.51,2.8,1.8,3.68,4.38,3.24l1.95-.94,2,0v3l-1.52,1.2.32.33,1.2-1.52h5.44c-.19-1.35-.31-2.18-.43-3a8.69,8.69,0,0,1,7-5.94l1,4c-.34,1-.67,2-1,3l-1,2-2,5c-6.86,2.37-12.45.42-17-5l-7.74,11.9c-4.16-.17-8.32-.35-12.48-.51-6.17-.24-8.29.24-11.78,9.62-1.81-2-.08-7-5.88-5.73-6.65,1.4-13.57,1.55-20.91,2.3l-.78,2.93Zm4.82-9.08c-.61,7,2.23,10.38,8,10a5.26,5.26,0,0,0,2.91-1.44,2.21,2.21,0,0,0-.28-2.12C217.88,378.2,214.38,376.17,210.68,374Zm66.48-26.47c-6,4.4-7.7,10.48-4.88,14.26C278.37,358.61,274.94,352.82,277.16,347.49Z"/><path class="cls-6" d="M557.43,381.6l-1.11,1.47-1.22.83c-8.06-.61-13-7.89-20.72-9.35l-6.79,7.5-5.08-2.32c.3-1.41.58-2.77.81-3.86-5.62-3.52-10.76-7.64-16.6-10-3.23-1.32-7.64.28-11.53.56l-8-6.19c-2.24,2.8-3.61,5.53-6.13,1.81l1.82-1.75L480.09,359l-.42-.22.41.24c.34,1,.67,2,1,3l-4-1,0-2-2-2-14-3-1-2c-.84-1.24-1.41-3-2.58-3.63-15-7.66-30.05-15.11-45.05-22.7-6.18-3.12-12.26-6.44-18.38-9.67.94-2.53,2.9-5.28,5.15-2.67,2.66,3.08,6,3.2,9.13,4.61,8.14,3.71,16.11,7.79,24.12,11.77,12,6,24,12.05,36.08,18,1.88.93,4.15,2.93,5.54-.73,3.94,1.77,7.85,3.61,11.85,5.23.88.35,2.09-.12,3.15-.21h3c1.09,1.64,1.81,4,3.34,4.81,9.48,4.93,19.15,9.49,28.63,14.12,1.3-2.89,1.7-5.65,3.29-6.93,3.74-3,2.84-5.82.78-9-1.3-1.14-2.43-2.6-3.92-3.36q-19.77-10.05-39.67-19.88c-7.44-3.68-15-7.21-22.44-10.8l-3-2-15-7c-.05-2.73-1-4.27-4-3l-2,0-3-2-8.94-3.08c-1.32-1.12-2.47-2.56-4-3.32-12.37-6.29-24.76-12.55-37.29-18.53-1.35-.64-4,0-5.3,1a13.62,13.62,0,0,0-3.57,5.27,28.87,28.87,0,0,0-1.35,5.46h4.88l-.43,6.14-3.18.13V300l-1-.89-11-7-1.17-2-3.75-1.11c-3.86-2-7.54-4.44-11.6-5.8-7-2.33-12.32-10-21.08-6.7-.33.12-.9-.36-1.35-.57-7.73-3.66-16.13-3.31-24.34-3.93-1.21-.09-2.46.59-3.7.91l-.93,0c-3.47-2.25-5.16-1.3-4.9,2.83.2,3.05.57,6.1.86,9.15-.46.16-1.21.2-1.33.5-2,4.83-4.59,9-9.64,11.36-.78.36-1,2.67-.9,4,.19,2.86.75,5.69,1.16,8.54l-1.38.17L278.09,308l-2-10c2.59-2.48,5.34-4.82,7.71-7.49,1.39-1.56,2.18-3.65,3.24-5.5,2.81-8.54,1.18-12.28-7-16q-1.51-3-3-6,4.51-9.49,9-19l4.06,1.45a14.79,14.79,0,0,1,.9-1.86c2.63-3.87,5.3-7.73,7.95-11.58-1.42,3-2.75,6-4.29,8.9-2.72,5.16-2.28,6.76,2.84,9.31Q321.14,262,344.74,273.7a25,25,0,0,0,4.65,1.25l.69-1.8-23-13.14c0-.36,0-.72,0-1.08a5.84,5.84,0,0,1,1.95.23q14.57,7.2,29.06,14.5c.43.21.73.68,1.13,1,4.29,3.05,6.91,2.64,10.41-1.4.57-.67,1.68-.88,2.54-1.3l3.4,1.68,5.59-3.73c2,2.57,3.55,6,6.19,7.52,9.45,5.31,19.25,10,29,14.8,8.15,4,16.46,7.69,24.56,11.8,7.47,3.8,14.65,8.16,22.13,11.94q30.25,15.31,60.69,30.29c2.26,1.12,4.91,1.44,7.38,2.12l-.93-7.1.47-1.19,6.94,1c-1.95,3.91-3.75,7.24-5.27,10.7-.62,1.43-1.4,3.63-.76,4.61,2.2,3.38.51,5.94-.94,8.72a40,40,0,0,0-2.59,5.36c-.3.88.15,2,.25,3a20.55,20.55,0,0,0,2.93-.72,65.86,65.86,0,0,0,7.1-3.08c.83-.45,1.23-1.73,1.82-2.62l2,1-2.76,4.64,9.95,3.36,1.75-3.77,1.9-.32c-.27,1.58-.54,3.16-1,5.54C553.19,378.4,555.31,380,557.43,381.6ZM290.36,266.67l25.15,1.93.42-1.18-19.09-9.59Zm78.08,26.62,1.91,1.11q3.52-7.15,7.06-14.3l-1.87-1Zm5.73,3.68c.53.33.92.76,1.18.69s.66-.54,1-.84c-.3-.23-.61-.67-.89-.65S374.74,296.59,374.17,297Z"/><path class="cls-7" d="M245.16,595.14q-1.57,4.49-3.13,9l-9.91-3.48c.77,2.92,1.41,4.73,1.71,6.6.81,5,1.48,9.94,2.21,14.92-1.09,5.81-1.72,11.75-3.43,17.37-1.12,3.69-3.51,7.13-5.86,10.28-2.95,4-6.44,7.56-9.7,11.31-3.9.74-8.05,2.74-11.66,2-16.2-3.2-23.06-20.19-22.21-34.68.08-1.4,2.09-2.68,2.19-4.1.45-5.72.5-11.48.69-17.22,1.09-2.9,2.1-5.88,6-6l18-6.65L189.29,589l.25-.52Z"/><path class="cls-8" d="M150.08,651.05c-5.45,0-7.1,5.33-10.77,7.86-3.18,2.19-5.2,6.17-8.47,8.11-5.42,3.22-11.53,5.27-17.18,8.13a94.42,94.42,0,0,0-14.07,8.25,10.26,10.26,0,0,0-3.38,7.07c-.2,6.1-.33,12.42,1.09,18.27,1.06,4.36,4.14,8.5,7.12,12a132.26,132.26,0,0,0,13,12.91c4.75,4.31,10.72,3.88,16.51,3.25,6.51-.7,13-1.78,19.48-2.61.5-.07,1.09.56,1.64.87a47.34,47.34,0,0,1-5.55,3c-4.27,1.64-9.07,1.61-12.28,6.16-1.49,2.11-5.41,2.52-8.23,3.7-1.11-1-2.13-2.63-3.36-2.81-4.26-.63-8.6-.74-12.9-1l-.8-.8c.53-3.39-1.69-3.39-4-3.26q-4.45-3-8.89-6l-.11,0c1-1.33,2.06-2.67,3-4l.75.28,1-2.46-1.15-.41c-.21.86-.43,1.72-.59,2.59-1.48-.32-3.46-.15-4.49-1.06-4.31-3.78-8.3-7.91-12.49-11.83a8.17,8.17,0,0,0-2.57-1.09c-.84-1.81-1.65-3.63-2.53-5.42-2-4.17-1.6-7.65,2-11,1.33-1.23,2.33-4.14,1.84-5.8-3.87-12.88.14-22.59,11.17-29.75,9.89-6.42,15.08-17,22.68-25.45,3.19-3.53,6.93-6.56,10.46-9.77,6.29-5.73,12-11.76,14.69-20.23,1.14-3.61,3.81-6.72,5.18-10.3,1.73-4.49,2.73-9.25,4.24-13.83a26.44,26.44,0,0,1,2.46-4.43l.65-2c.1-.7.19-1.4.28-2.09,1.11,1.17,3.24,2.43,3.14,3.5a27.92,27.92,0,0,1-2.35,7.89c-1.63,3.94-3.53,7.76-5.29,11.65-3.19,7.06-6.09,14.28-9.68,21.13-1.61,3.09-4.58,5.47-7.13,8.39,1.81,2.62,3.64,5.35,5.55,8C143.2,641.48,146.65,646.26,150.08,651.05Z"/><path class="cls-9" d="M410.09,741.14h3c3.82,1.71,7.31,1.78,10-2H425l2.06-1,5.95-1c.39.29.79.86,1.14.83,4.4-.36,6.17.83,3.55,5.28-.4.67.25,2,.41,3q.08,3.43.13,6.86l-5.2,2.1-20.9,8c.32,2.14.69,4.39,1,6.65a66.22,66.22,0,0,1,.86,7.38c.14,8,.94,9.68,8.47,11.42,2.92.68,6.36-.89,9.57-1.44l2-1,1.11,2.06-13.57,9.9c6.48,5.48,10.89,13.38,19.84,16,9.88,2.91,19.8,5.72,23.67,17-7.61-.26-15.32.17-22.79-1s-14.61-4.06-22-5.65c-3-.64-4.66-1.48-5.61-4.5-.38-1.24-2.46-2.54-3.92-2.75-6.19-.92-12.44-1.44-18.67-2.11,1.13-6.8,2.41-13.58,3.31-20.41.27-2,.13-4.63-.94-6.21-1.9-2.81-1.27-4.51.6-6.95a11.59,11.59,0,0,0,2.52-6.91c-.38-7.9-1.38-15.78-2.13-23.66-.22-1-.44-1.93-.65-2.9l-.51-3.09c.58-1.3,1.17-2.6,1.76-3.9h2C402.08,743.11,406.09,745.32,410.09,741.14Z"/><path class="cls-10" d="M150.08,651.05c-3.43-4.79-6.88-9.57-10.28-14.38-1.91-2.69-3.74-5.42-5.55-8,2.55-2.92,5.52-5.3,7.13-8.39,3.59-6.85,6.49-14.07,9.68-21.13,1.76-3.89,3.66-7.71,5.29-11.65a27.92,27.92,0,0,0,2.35-7.89c.1-1.07-2-2.33-3.14-3.5l.7-2,3.77.07,9,4c2.59,1.68,5,3.82,7.8,5,8.47,3.46,8.52,3.3,6.43,12a7.34,7.34,0,0,0,.08,2.17l8.69,3.8c-3.86.15-4.87,3.13-6,6a33.24,33.24,0,0,0-15,23c-1,1.34-2.8,2.68-2.8,4,0,6.35.5,12.69.82,19-.66-1-1.7-1.81-1.94-2.85-1.9-8.15-9.11-11.49-13.71-17.18L152,634.17l4.88,8.31-5.52,6.28c5.87,4.48,11.26,8.74,16.81,12.78,1.73,1.27,3.5,2.13,1.87,4.59Z"/><path class="cls-11" d="M267,212.11c-4.06-4.83-9.7-4-15.06-4.22,2.21-2.55,4.46-5.07,6.61-7.67,2.54-3.07,6.32-5.89,7.17-9.4,1.41-5.79.9-12,1.2-18.11l7.51-5.77,7.62,1-2.33.44.64,1.14,1.69-1.58,4,0,.82,1.58,7.22,3.63c-2.56,10.43,3,17.3,9.55,20.67,3.25,1.67,6.51,3.34,9.6,5.28,12.83,8,24.69,17.24,34.06,29.31L364,249.91l.18,2.4c-.15.88-.29,1.75-.43,2.63-1.15-.48-2.74-.65-3.36-1.51-4.6-6.46-9-13.08-13.47-19.61a65.11,65.11,0,0,0-21.46-19.41c-6.37-3.66-13.65-5.81-20.66-8.22a7.61,7.61,0,0,0-5.76.93c-6.07,3.91-11.92,8.17-17.76,12.42-.66.48-.78,1.7-1.15,2.57Z"/><path class="cls-12" d="M460.9,411.15l-5.69,13.7-8.41-4c-2.19-.95-4.3-2.24-6.59-2.79-9.62-2.28-17.26-6.75-20.07-17l17,1.36c-5.87-8.79-11.47-16.19-3.68-26.37,1.62,7.58,3,14.24,4.46,20.91l1.28-.34c-.38-4.18-1.3-8.4-1-12.52s2.16-8.05,2.78-12.14c1-6.47,2.05-8.29,7.17-9.32-1.14,1.81-1.82,3.56-3.05,4.72-2.65,2.47-2.11,4.33.3,6.6,4.29,4,7.38,4,12.19.16,3.44-2.73,6.47-5,1.33-9-.71-.55-.44-2.37-.53-3l13.79,6.45c.45.21,1.05.33,1.31.69,4.9,6.76,12,8.11,19.69,8.18.09,0,.17.55.36,1.18-4,0-7.6.74-8,5.68l3.93,3c-3.07-.14-6.61-1.37-8.4-.11s-5.67,3.83-3,7.76l-.07.08c-2.28.34-4.95-2.53-6.9,1.21-1.3,2.5-4.1,4.47-.68,7.86-5.62-2.73-7.48,0-8.39,4.44A11.61,11.61,0,0,1,460.9,411.15Zm-11-12.95c-2.35,4.12-4.45,7.74-6.45,11.41-.27.49-.28,1.69,0,1.84,2.77,1.55,5.52,3.8,8.48,4.15,2.5.29,4.58-6.49,3.06-9.13S451.75,401.17,449.92,398.2Z"/><path class="cls-13" d="M460.9,411.15a11.61,11.61,0,0,0,1.19-2.56c.91-4.45,2.77-7.17,8.39-4.44-3.42-3.39-.62-5.36.68-7.86,1.95-3.74,4.62-.87,6.9-1.21l2.05.84c.06-.23.12-.46.19-.69l-2.17-.23c-2.71-3.93,1.06-6.42,3-7.76s5.33,0,8.4.11l-3.93-3c.41-4.94,4-5.64,8-5.68-.19-.63-.27-1.18-.36-1.18-7.68-.07-14.79-1.42-19.69-8.18-.26-.36-.86-.48-1.31-.69l-13.79-6.45c.09.59-.18,2.41.53,3,5.14,4,2.11,6.23-1.33,9-4.81,3.83-7.9,3.86-12.19-.16-2.41-2.27-2.95-4.13-.3-6.6,1.23-1.16,1.91-2.91,3.05-4.72-5.12,1-6.19,2.85-7.17,9.32-.62,4.09-2.47,8.05-2.78,12.14s.61,8.34,1,12.52l-1.28.34c-1.42-6.67-2.84-13.33-4.46-20.91-7.79,10.18-2.19,17.58,3.68,26.37l-17-1.36-1.66-2.09c-.13-7.22-1.23-14.59-.15-21.63,1.48-9.73,7.35-17,18.24-16.51,2.88.13,5.77,0,8.66,0l.11-1-9.8-3.54,7.86-1.24c.07-.29.43-1.81.8-3.33,2,2.33,4,4.66,6.28,7.3,2.27-2.48,3.8-4.16,5.32-5.84l5.28.8,14,3,2,2,0,2c2.75,6.84,9.28,13.08,17.34,11.46a16.27,16.27,0,0,1-3.36-2.22c-.27-.3.44-1.49.7-2.28,2.71,3.52,5.67,6.88,8,10.63a7.34,7.34,0,0,1,.65,5.86c-1.06,2.54-2.23,5.55-6.28,5.36-1.64-.08-3.74,1.17-5,2.44-4.22,4.39-8.15,9.06-12.18,13.63l-4.63-1.69,1.67,3.85C470.58,415.72,466.61,415.09,460.9,411.15Z"/><path class="cls-14" d="M102,730.14l-3.09,4c-3,.67-6.1,1.24-2.82,5.26l-.93,2.77-2.22,5-6.75-5.5c-2.39,8.5-4.62,17-7.23,25.43a34.19,34.19,0,0,1-4.6,10c-5,6.82-5.17,8.24.61,15.18.32-5,3.07-1.91,5-2.11l.08,2.05,0,0a15.59,15.59,0,0,0-1,2,9.82,9.82,0,0,0-.21,2c-4.35-.83-7.64.24-8.92,4.95.66,2,2,4,1.86,6-.34,5.41,3.15,6.34,7.15,7,1,1.4,2.73,2.75,2.84,4.22.38,4.89.18,9.82.21,14.74-3.4-.66-6.79-1.38-10.2-2-4.26-.74-7.29-2.8-8.85-7a5,5,0,0,0-2.81-2.91c-3.72-.91-4.93-3.27-5.31-6.76-.16-1.5-1.3-2.89-2-4.33,2.07-7.48,4.18-14.94,6.15-22.45.48-1.81,1.16-4,.6-5.56-1.37-3.87.49-6.19,2.71-8.86,2-2.45,4.19-5.16,5.13-8.12,5.17-16.27,10-32.65,14.9-49A8.17,8.17,0,0,1,85,717.24c4.19,3.92,8.18,8,12.49,11.83C98.51,730,100.49,729.81,102,730.14Z"/><path class="cls-5" d="M284.07,528c.24-2.08-.27-4.78.85-6.13,7-8.49,5.91-17.11,1.09-25.93-2.43-4.44-5.09-8.74-7.79-13.36.77,0,1.39-.19,1.62,0,5.22,5.11,10.54,10.14,15.54,15.47,3.42,3.64,6.31,7.74,2.74,14.54l17.13-5c1,2,1.51,4.32,2.93,5.34,6.27,4.53,12.74,8.8,19.31,12.89,2.26,1.42,5,4.16,7.57.17,1.67,4.53.68,6.35-4.92,9.1L338,534.06c-5.26-4.41-11.46-6.59-17.93-8.08L319,527.39l12.11,11.75a77.17,77.17,0,0,1-2.93,7.3c-1.89,3.68-4.07,7.21-6.14,10.8a23,23,0,0,0-2.49-.07c-6.95.48-12-1.86-13.32-9.3-1.08-6.18-6.76-7.77-10.66-11.09C291.87,533.68,287.9,530.93,284.07,528Z"/><path class="cls-13" d="M465.14,831.14c-3.87-11.28-13.79-14.09-23.67-17-9-2.64-13.36-10.54-19.84-16l13.57-9.9,2.77,1.43-4.88,7.26c4.94,1,8.34,8.23,15.61,5.7,0,2.66,2.07,2.54,4.56,1.47,3.86,2.37,6.32,0,9.64-3.07l-4.76-1,2.19-1.07-7.26-5.85c3,1.31,6.21,2.33,9,4,6.86,4,13.9,6.36,22.11,5.91,9.25-.51,12.64,1.94,14,11.08,1.2,8.18.53,16.64.68,25-.44-2.86-.87-5.71-1.22-8Z"/><path class="cls-3" d="M192,601.09l-8.69-3.8a7.34,7.34,0,0,1-.08-2.17c2.09-8.75,2-8.59-6.43-12-2.8-1.14-5.21-3.28-7.8-5l11.08,3L190,584c6.52-3.91,12,.93,17.94,2.16a45.23,45.23,0,0,1,9.28,3.18c3.38,1.51,5.37.29,6.8-2.68,3.7-7.7,7.6-15.32,11-23.13,5.16-11.74,10-23.62,15-35.44l0,0c4.33,3.4,8.81,6.63,12.92,10.27,2.7,2.4,4.86,5.4,7.26,8.12L262.91,561c-5.61-2.31-11.17-4.75-16.86-6.83-1.32-.48-4.11-.18-4.49.6-2.44,5-4.39,10.2-6.67,15.75,2.09,1,3.84,1.76,5.57,2.59,4.43,2.13,9.94,2.48,12.54,7.62l-7.84,14.38-55.62-6.71-.25.52,20.78,5.49Zm65-46-.74,1.07.38.25c.13-.43.25-.87.37-1.31l1-1a46.06,46.06,0,0,0,2.52-8.2l1.26.53,2.31-5.34-1.38-.58a21.57,21.57,0,0,0-1.7,5.59q-1.5,4-3,8Z"/><path class="cls-5" d="M430.17,420.81c-3.74.18-7.51.18-11.23.59-5.8.65-9.64-2.14-11.78-7-3.09-7-8.74-11.57-14.63-15.74-4.07-2.89-4.67-6.36-4.32-10.74a66.1,66.1,0,0,0-.24-7.82c4-7.65-.64-13.37-4.05-19.62-.81,1.06-1.38,1.82-2,2.57q.51-2.5,1-5l.06-3-.06-1.92,5.83-4.51c.81-.63,1.53-1.57,2.44-1.83,2.54-.73,5.15-1.17,7.74-1.73,4.54,5.46,8.65,10.93,3.07,18.19-.94,1.21-1,3.09-1.43,4.68-1.82,7.36.58,11.07,8.54,12.73a39.31,39.31,0,0,1,2.83-5.56,50.13,50.13,0,0,1,4.68-5c-1.27,3.91-3.06,7.74-3.69,11.75-1,6.41-2.82,13,1.06,19.24C415.77,410.61,421.67,416.77,430.17,420.81Z"/><path class="cls-15" d="M418.44,203.11c3.07,2.3,3.09,5.39,2.5,8.8-.5,2.91-.43,5.91-.95,8.81a4.64,4.64,0,0,1-2.12,3c-.53.27-1.86-1-2.82-1.6-.46-6-5.59-8.71-9.07-12.39-1.94-2.06-5.62-3.3-8.55-3.37-3.09-.08-6.23,1.68-9.35,2.63-.86-.92-2.05-1.71-2.5-2.8-.72-1.71-.32-4.35-1.47-5.33-5.89-5-7.27-12.49-10.47-18.91-3.72-7.48-3.39-7.59,4-11.26,3-1.47,5.54-2.41,6.58,2.13.17.73,1.29,1.24,2,1.85a14.61,14.61,0,0,0,1.3-2.67,14.64,14.64,0,0,0,.05-3.23c4.06,2.52,4.34,5,2.1,8.2-2.77,4-1.43,10.07,2.74,12.72,1.56-1.9,3.17-3.79,4.7-5.74,3-3.8,6.36-5.87,11.6-4.34,3.59,1.05,7.51,1,11.28,1.4a37.5,37.5,0,0,1-1.17,6.2,24.33,24.33,0,0,0-.44,15.76l-9.29-1-.43-.23.43.23c1.35,1.14,2.64,2.37,4.08,3.4C416.08,207.46,418.27,207.58,418.44,203.11Z"/><path class="cls-5" d="M530.15,341.24l.93,7.1c-2.47-.68-5.12-1-7.38-2.12q-30.41-15-60.69-30.29c-7.48-3.78-14.66-8.14-22.13-11.94-8.1-4.11-16.41-7.79-24.56-11.8-9.73-4.8-19.53-9.49-29-14.8-2.64-1.48-4.16-4.95-6.19-7.51a2.47,2.47,0,0,1,.61.05c10.74,5.18,21.53,10.25,32.21,15.55,25.28,12.55,50.47,25.29,75.78,37.76,4.2,2.07,8.87,3.21,13.32,4.78l11.36,6.19.9-2-12.11-5c-1.58-1.51-2.9-3.52-4.77-4.46q-45.61-23-91.36-45.8c-1.66-.83-3.27-1.78-4.9-2.68l.65-1.38,10.25,4h0l6,3h0l4,2h0l6,3h0l6,3h0l10,5h0l4,2h0l16,8h0l1.09,1,.4,0h.4l1.2,1a5.35,5.35,0,0,1,.8,0l6.12,3h0l6,3h0l2,1.11L485,313l4.05,2,1.14,0L523,331.43,522.1,334c-2.54.69-3,2.22-.75,3.51C524.1,339.08,527.2,340,530.15,341.24Z"/><path class="cls-16" d="M465.14,831.14h32.51c.35,2.25.78,5.1,1.22,8l-1.14,2.39c-1.31-2.6-2.61-5.21-3.72-7.42H463.08v9.09c-7.28-.32-14.57-.57-21.85-1a9.45,9.45,0,0,1-4-1.73c-4.71-2.93-9.36-6-13.95-8.89a14,14,0,0,0-1.66,1.88c-1.14,2.28-1.86,6.23-3.4,6.56-3.68.81-7.73-.1-11.63-.25-1.6-.06-3.24.26-4.81.06-3.47-.44-6.92-1.11-11.59-1.89,0-6.06-.12-12.15.09-18.24.05-1.5,1.19-3,1.83-4.45,6.23.67,12.48,1.19,18.67,2.11,1.46.21,3.54,1.51,3.92,2.75.95,3,2.64,3.86,5.61,4.5,7.4,1.59,14.56,4.53,22,5.65S457.53,830.88,465.14,831.14Z"/><path class="cls-13" d="M82.1,833.12c0-4.92.17-9.85-.21-14.74-.11-1.47-1.84-2.82-2.84-4.22l-4-8h1l6.77,1.22,1.25,1.05-3.88,1.61.34,1.1,11.24-1.06c.17-.8.42-2,.61-2.94A13.32,13.32,0,0,0,105.55,804c1.24,3.2,3.54,4.1,7,4.12,12.48.06,14.86,2,15.91,14.39.52,6.13-.32,12.39-.55,18.59-.49-2.51-1-5-1.35-6.9-7.57,0-14.82.14-22.06,0C97,834,89.55,833.48,82.1,833.12Zm43.33-2.68.82.36c.11-.27.38-.6.31-.8s-.5-.26-.77-.38Z"/><path class="cls-6" d="M420,181c-3.77-.43-7.69-.35-11.28-1.4-5.24-1.53-8.6.54-11.6,4.34-1.53,2-3.14,3.84-4.7,5.74-4.17-2.65-5.51-8.74-2.74-12.72,2.24-3.22,2-5.68-2.1-8.2a14.64,14.64,0,0,1-.05,3.23,14.61,14.61,0,0,1-1.3,2.67c-.67-.61-1.79-1.12-2-1.85-1-4.54-3.59-3.6-6.58-2.13-7.42,3.67-7.75,3.78-4,11.26,3.2,6.42,4.58,13.86,10.47,18.91,1.15,1,.75,3.62,1.47,5.33.45,1.09,1.64,1.88,2.5,2.8,0,.68,0,1.36,0,2l-4.39-.23c-.63-2.29-1.1-4-1.56-5.7-.35-1.26-.28-3-1.1-3.69-5.85-4.61-11.88-9-17.86-13.45l-15.07-11-12.82-10.86c1.42.36,2.83.79,4.27,1.07,4.8.91,9.69,2.74,14.41,2.4,4.94-.35,9.81-2.59,14.57-4.38,8.1-3.06,16.16-5,24.55-1.23,6.77,4.24,13.09,9.36,21.34,10.66,2.26.36,4.49.92,6.74,1.39Z"/><path class="cls-17" d="M171,630.07a33.24,33.24,0,0,1,15-23c-.19,5.74-.24,11.5-.69,17.22-.1,1.42-2.11,2.7-2.19,4.1-.85,14.49,6,31.48,22.21,34.68,3.61.72,7.76-1.28,11.66-2-.79,1.22-1.3,3.07-2.4,3.55A8.68,8.68,0,0,0,209,672l-12.31,7.09a32.1,32.1,0,0,0-3.41.44c-8.25,2-10.18,1.19-15-5.61a17.32,17.32,0,0,0-3.28-2.83l0-5h0l8,4,.42.22-.41-.23a19.05,19.05,0,0,0-1.54-3c-5.63-7.4-10.33-15-9.58-25C172.23,638.15,171.36,634.09,171,630.07Zm9.09,23.42-1.91,1.39a14.1,14.1,0,0,0,7.57,12.56c1.32.76,3.11.67,4.69,1l1-1.89Z"/><path class="cls-10" d="M192,462.43c-1.29,3.05-.59,4.78,3,4.64,1.32-.05,2.65,0,4,0q-4,11.48-8,22.93c-1,2.7-2,5.39-2.92,8.08-2.44-.06-5.38-.52-5.62,2.88-.06.94,2.35,2,3.63,3.09L185,509l-3.95,1-4,1.08L175,509.06c.23-8.26.57-16.48,7.44-24.17-4.13-2-7.85-4.64-12-5.75-4.91-1.31-6.72-3.06-5-7.94,1.66-4.62,3.92-9,5.74-13.56,1.47-3.7,4-5.37,8-4.93l1.93,1.15.93.24,2.24,1.77-.06,0,6.36,6Z"/><path class="cls-6" d="M82.1,833.12c7.45.36,14.89.86,22.35,1,7.24.18,14.49,0,22.06,0,.37,1.88.86,4.39,1.35,6.9-.58,1.76-1.17,3.51-1.75,5.27-3.28-8.2-3.28-8.2-12.32-8.2H84l-4.93,8.93a98.72,98.72,0,0,1-10.9-1.62,7,7,0,0,1-3.8-3.4c-2.1-4.12-4.77-6.47-9.79-6.94-2-.19-5.24-4.07-5.1-6.08.44-6.36,2.22-12.63,3.47-18.94.7,1.44,1.84,2.83,2,4.33.38,3.49,1.59,5.85,5.31,6.76a5,5,0,0,1,2.81,2.91c1.56,4.23,4.59,6.29,8.85,7C75.31,831.74,78.7,832.46,82.1,833.12Z"/><path class="cls-18" d="M485,313l-1.89-.88-2-1.11h0c-.52-4-3.61-2.81-6-3h0c-.55-4-3.71-2.76-6.12-3a5.35,5.35,0,0,0-.8,0l-1.2-1h-.4l-.4,0-1.09-1h0c-4.07-5.2-9.52-7.65-16-8h0l-4-2h0c-1.81-4.74-6.09-4.52-10-5h0l-6-3h0c-.53-4-3.6-2.79-6-3h0l-4-2h0c-.53-3.94-3.61-2.79-6-3h0a71.61,71.61,0,0,0-7.49-4.93c-2.58-1.3-6.53-1.18-8-3.11-3.34-4.4-7.89-5.62-12.58-7.06,1.51-2.51,3.39-5.36,6.52-3.05,4.13,3,8,5.95,13.52,5.25,5.5,1,7.9,8.43,15.86,7.6-.95-5.42-1.85-10.13-2.58-14.87-.37-2.42-1.12-5.2,2.66-5.79.95,5.93,2,11.85,2.81,17.79.43,3.07.53,6.18.66,7.8L442,285.22l-.3.38,5.89,2.19.09.54,7.56,3.26c2.14,1.13,3.59,1.84,5,2.63s2.51,1.56,4.74,3l2.33-.63-.41.95,13.78,7.23c2.22-.3,4.46-.59,4.46,3.71l5.06-1.14V315l-1.14,0Z"/><path class="cls-7" d="M460.26,706.14c-1.38-.86-3.5-1.42-4-2.64-2.54-6.25-4.37-12.8-7-19s.35-11.73,1.09-17.51c1.3-10.13,3.33-20.19,4.23-30.35.59-6.64-1-13.48-.3-20.09,1.14-11,3.3-21.84,5.15-32.73.17-1,1.23-1.86,1.88-2.79-1.61,22-3.72,44-4.66,66-.7,16.23-.05,32.52.44,48.78C457.16,699.28,459.14,702.7,460.26,706.14Z"/><path class="cls-3" d="M269.94,155c-1.91-8.78,1.14-16.15,6.2-23.12,1.74-2.4,2.5-5.49,3.88-8.18,2.2-4.3,4.54-8.53,6.82-12.78l5.36-1.78.83,3.76-7.44,10.09q-.22,4.14-.43,8.26l.9,10.74q0,3,.05,6.07c.08,1.09.17,2.17.26,3.26l1.52.61L292,143l.05,0,2.13,0,4.94,2.83c-4.08.1-3.32,3.24-3,5.45,1.17,8.26-2.54,13.17-10.08,15.73q.51-6.51,1-13l.23-.41-.22.42a16.42,16.42,0,0,1-3-2.08,35.77,35.77,0,0,1-2.85-3.9c-.22-4-.45-8-.73-13.07-4.33,4.61-5.79,9.11-5.67,14,.1,4,.84,7.89,1.3,11.84l1,2.09L277,163h-4.08c-.36-.8-.71-1.61-1.07-2.41C271.19,158.73,270.57,156.84,269.94,155Z"/><path class="cls-18" d="M377.06,489.07c3.28-2.66,6.77-5.11,9.76-8.07,1.57-1.55,2.25-4,3.33-6.06.54,1.1,1.77,2.44,1.49,3.26-1.62,4.69,1.27,7.26,4,10.31,14.52,16.43,28.83,33,43.36,49.46,2.21,2.5,2.13,4.55.43,7a1.37,1.37,0,0,0-.51-.26l-1.8-1.62-4.3-.74c-2.66-9.81-9.81-15.68-17.21-21.28-8.68-13.26-20.36-23.92-30.62-34.75Z"/><path class="cls-10" d="M322,557.24c2.07-3.59,4.25-7.12,6.14-10.8a77.17,77.17,0,0,0,2.93-7.3l2,0c-.18,10,9.21,12.66,13.59,19.17l1.68-.44L349,552a11.77,11.77,0,0,1,10.94-9.15c3.08-.08,4.72-1.45,3.11-4.77,5.92-2.6,6.15-4.08,2-8.65-2-2.19-3.34-5-5-7.46l13,12.09,1,1-1,0c-2.38,2-4.73,4-7.16,6-2.94,2.38-5.95,4.67-8.93,7l1.72-3.13L350,552l.8.92,2.22-.87c-1.17,3.82-2.28,6.83-7.1,8.51-3.36,1.17-5.34,6.31-7.94,9.68-2.26-1.13-4.87-1.86-6.71-3.47C328,563.88,325.08,560.45,322,557.24Z"/><path class="cls-19" d="M79.05,847.11,84,838.18h29.81c9,0,9,0,12.32,8.2-7.38,1.34-14.5,3.75-22.35,1.77-4.21-1.06-9,.31-13.5.18C86.51,848.23,82.78,847.54,79.05,847.11Z"/><path class="cls-2" d="M253,580.76c-2.6-5.14-8.11-5.49-12.54-7.62-1.73-.83-3.48-1.62-5.57-2.59,2.28-5.55,4.23-10.77,6.67-15.75.38-.78,3.17-1.08,4.49-.6,5.69,2.08,11.25,4.52,16.86,6.83-1.6,5.15-2.91,10.42-5,15.39C257.2,578.24,254.7,579.34,253,580.76Z"/><path class="cls-11" d="M205.86,383l16.64,3.5.78-2.93c7.34-.75,14.26-.9,20.91-2.3,5.8-1.23,4.07,3.73,5.88,5.73,0,.34-.06.68-.08,1-1,2.64-1.93,5.29-3.25,8.92-3.79-.35-8.54-.32-13.07-1.33-7.16-1.6-14.15-4-21.25-5.83-1.29-.34-2.78.08-4.17.16C204.41,388.71,204.18,386.21,205.86,383Zm19.44,3.64c.12-.28.39-.62.31-.82s-.51-.26-.78-.38c-.12.28-.39.62-.32.82S225,386.55,225.3,386.68Z"/><path class="cls-6" d="M163.8,539.19c-.07-4.55.38-8.92,4.17-12.14l10-2c3,1.09,6.21,1.89,9.05,3.34,1.92,1,5,3.43,4.71,4.28-1.07,3.22-2.72,7.88-5.2,8.66-4.85,1.51-10.4.78-15.66,1l-3.83-.16Z"/><path class="cls-15" d="M540.1,367.06c-.59.89-1,2.17-1.82,2.62a65.86,65.86,0,0,1-7.1,3.08,20.55,20.55,0,0,1-2.93.72c-.1-1-.55-2.16-.25-3a40,40,0,0,1,2.59-5.36c1.45-2.78,3.14-5.34.94-8.72-.64-1,.14-3.18.76-4.61,1.52-3.46,3.32-6.79,5.27-10.7l-6.94-1-.48-2,3.44-1.24c4.93-1.22,9,1.07,13,3.34.67.39.69,1.93,1,2.94l-1.44,3.15c-1.9,5.23-3.9,10.42-5.64,15.7C540,363.5,540.23,365.33,540.1,367.06Z"/><path class="cls-6" d="M157.11,561.11q1.44-5,2.9-10L170,549l15.8,6.16c-.65,2.32-1,5.2-2.29,7.53-.86,1.54-3.1,3.2-4.76,3.24-5.58.14-11.19-.42-16.78-.71Z"/><path class="cls-2" d="M421,251c-3.78.59-3,3.37-2.66,5.79.73,4.74,1.63,9.45,2.58,14.87-8,.83-10.36-6.59-15.86-7.6q1-5,2-10.07c.17-2.68.47-5.35.48-8s-.28-5.65-.48-9.31l9.78,4.39C420,243.64,422,246.7,421,251Z"/><path class="cls-10" d="M351.63,582.23l8.25-9.82,18.21,16.31-11.48,9.63c-1.22-.49-2.73-.69-3.61-1.54-3.43-3.3-6.78-6.72-9.9-10.31C352.18,585.45,352.1,583.68,351.63,582.23Z"/><path class="cls-4" d="M375.19,420.54l-10.12-3.6V402l-1-1.25c0-.88.09-1.76.14-2.64q1.41-6,2.83-12.1c1.22.73,2.95,1.16,3.57,2.23,1.72,3,4,2.64,6.6,1.8-.1,1.7-.21,3.41-.31,5.12-.93,1.17-2.55,2.28-2.65,3.53-.35,4-.13,8.07-.13,12.34,1-2.29,1.83-4.18,2.66-6.06.13,3.8.44,7.6.28,11.38C377,417.8,375.86,419.16,375.19,420.54Z"/><path class="cls-7" d="M156.14,734.45l2.24-14-12.54,5.44c9.77-14,22.12-22.77,33.95-32.11,3-2.38,6.35-4.36,9.55-6.52-5.75,6.36-11.34,12.89-17.31,19a36.41,36.41,0,0,0-8.77,13.53C161.47,724.88,158.56,729.58,156.14,734.45Z"/><path class="cls-3" d="M463.08,843.16v-9.09H494c1.11,2.21,2.41,4.82,3.72,7.42-7.62.62-15.22,1.35-22.84,1.8C471,843.52,467,843.22,463.08,843.16Z"/><path class="cls-13" d="M122.13,755.19a116.7,116.7,0,0,0-20,37l-2.12-.1c1.14-5.15-3.38-5.33-6.18-7l5.94-3.47,2.44-3.63-4.5-1.51.19-.81h8v-4.83l0-2.57c.41-.46,1.24-1.25,1.17-1.34-2.22-2.81-4.52-5.56-6.81-8.31l8.76-.11c2,2.52,3.76,3,4.89-.72l-.08-1.51Z"/><path class="cls-20" d="M434.09,786.16l-2,1q.5-16,1-32l5.2-2.1,1.81-.72,2,6.84c-5.45,1.07-6.69,4.44-2.95,9,2.5-2.59,5.68-4.72,2.94-9,4.12.76,2.78-3.86,4.94-5q-1.39,11-2.8,22l-2,0c-1-3.19-3.06-3.12-4.47-.73-1,1.78-.88,4.26-1.25,6.43l-2.4,2.31Z"/><path class="cls-4" d="M383,353.09l.06,1.92-.06,3q-.53,2.5-1,5-2.13,4.53-4.25,9l1.05.56,3.6-2.36c.33,1.46.55,2.39.76,3.32l-3.86.61c3.21,4.27,2.69,7.26-1.58,10.95L370.07,379q1.47-9.09,2.95-18.18c1.14-.4,2.52-.52,3.37-1.26C378.71,357.57,380.8,355.28,383,353.09Z"/><path class="cls-16" d="M122.13,755.19l-8.24,1.09-.8-.26c-4-4.41-8.13-8.69-15-6.83l-5.09,0,0-1.94,2.22-5c-1.16,4.67,2.33,3.85,4.88,4.14l2.94-.25-6.89-6.66c-3.28-4-.13-4.59,2.82-5.26l.11,0c2.77,3.61,5.34,7.42,8.48,10.68.73.76,3.43-.37,5.22-.63,4.3.31,8.64.42,12.9,1,1.23.18,2.25,1.83,3.36,2.81l-2,2.07c-.32.35-.65.69-1,1Zm-.78-8.21-10.18,1.65c1.77,2.16,3.13,3.83,4.77,5.82Z"/><path class="cls-18" d="M209,672a8.68,8.68,0,0,1,5.62-7.34c1.1-.48,1.61-2.33,2.4-3.55,3.26-3.75,6.75-7.33,9.7-11.31,2.35-3.15,4.74-6.59,5.86-10.28,1.71-5.62,2.34-11.56,3.43-17.37l3.07,2c-.59,2.82,1.66,6.48-2.45,8.27a1,1,0,0,0-.39.84c1.42,12.66-5.76,21.46-13.89,29.46C218.57,666.45,213.52,668.93,209,672Z"/><path class="cls-21" d="M400.48,213.86l-.41,4.13q-1.5,8.5-3,17h0l-1,1h0l-4.08,2.9L377.87,247l-.9-1.16q2.08-3.41,4.19-6.79c2.7-3.4,5.54-6.7,8.06-10.23,2.17-3,4-6.32,6-9.47.94-1.49,2-2.93,2.95-4.39,0-.27,0-.55,0-.82Z"/><path class="cls-22" d="M434.09,786.16c0-.67,0-1.33,0-2l9,5c1.75,3.24,3,1.81,3.84.18l5.66,3.64.29-.05.19.22,7.26,5.85-2.19,1.07c-2.24.59-5.65-.23-4.88,4-2.49,1.07-4.53,1.19-4.56-1.47-7.27,2.53-10.67-4.71-15.61-5.7l4.88-7.26-2.77-1.43Zm8,10.8c2.14,4.38,5.2,1.88,7.79,1.38.5-.1.77-1.43,1.15-2.2-2.34-.24-4.67-.6-7-.66C443.46,795.46,442.84,796.39,442.13,797Z"/><path class="cls-22" d="M105.55,804a13.32,13.32,0,0,1-13.19,3.15c-.19.93-.44,2.14-.61,2.94l-11.24,1.06-.34-1.1,3.88-1.61L82.8,807.4,76,806.18c0-.67,0-1.34,0-2l2-4,5,0-1.85,1.57C92,803.59,92.58,803.54,97,799.94H84a14.53,14.53,0,0,1,15.82.85c1.17.86,2.94.89,4.43,1.3Zm-14.85,4.3c-.13-.27-.19-.65-.38-.73s-.52.14-.78.23l.49,1Zm-4.4-1.91h.42v-1.49H86.3Z"/><path class="cls-23" d="M266.93,172.71c-.3,6.06.21,12.32-1.2,18.11-.85,3.51-4.63,6.33-7.17,9.4-2.15,2.6-4.4,5.12-6.61,7.67l-5.2,0c3.32-3.51,6.84-6.86,9.86-10.61a9.73,9.73,0,0,0,2-6C258.3,183.58,260.81,177.38,266.93,172.71Z"/><path class="cls-24" d="M328,114.4c0,.46,0,.92,0,1.39-2.7,6.39-5.59,8-9.62,5.32l2.79-3.06c.18-.47.37-.94.55-1.4l-.86,1.14c-2.53-.74-5-1.56-7.58-2.19a45.46,45.46,0,0,0-4.68-.68l-4.33-2a47.76,47.76,0,0,0,4.37-3.76c2-2.12,1.55-3.74-1.4-4.44,2.55-2.06,4.73-1.83,6.65.93a9.5,9.5,0,0,0,2,1.6c.7.93,1.39,1.88,2.09,2.82Z"/><path class="cls-25" d="M430.17,420.81c-8.5-4-14.4-10.2-16.11-19.77,1.44-.76,4.81,2.53,4.42-2.1l1.66,2.09c2.81,10.25,10.45,14.72,20.07,17,2.29.55,4.4,1.84,6.59,2.79Z"/><path class="cls-11" d="M421.15,176c-2.25-.47-4.48-1-6.74-1.39-8.25-1.3-14.57-6.42-21.34-10.66q-.49-4.48-1-9l8.05,3h0l1,1v0c.07,4,2.54,5.92,6,7l0,0,3.07,2a8.44,8.44,0,0,1,.87,0c1.06,1.19,1.9,2.8,3.22,3.49a71.76,71.76,0,0,0,8,3.12C421.9,175.05,421.52,175.52,421.15,176Z"/><path class="cls-10" d="M272.89,163H277l.53.37-.38-.54-1-2.09,5.1-12.78a35.77,35.77,0,0,0,2.85,3.9,16.42,16.42,0,0,0,3,2.08h0q-.51,6.51-1,13c0,.33,0,.65,0,1l-4,0h0l-7.62-1C273.92,165.63,273.4,164.33,272.89,163Z"/><path class="cls-7" d="M397.08,235l3-17c0,5.56,3.28,9.39,6.94,13,3.32,3.3,6.56,6.69,9.83,10l-9.78-4.39c.2,3.66.48,6.49.48,9.31s-.31,5.35-.48,8c-.33-4.6-.52-9.21-1.05-13.78-.46-4-.88-8.24-5.86-8.87Z"/><path class="cls-2" d="M178,525l-10,2c.59-3.2.84-6.53,1.9-9.56.72-2,2.6-3.67,4-5.48l3.23-.87,4-1.08Q179.51,517.53,178,525Z"/><path class="cls-17" d="M239.11,624.13l-3.07-2c-.73-5-1.4-10-2.21-14.92-.3-1.87-.94-3.68-1.71-6.6L242,604.1C238.1,610.34,239.65,617.39,239.11,624.13Z"/><path class="cls-5" d="M491.81,368c-.26.79-1,2-.7,2.28a16.27,16.27,0,0,0,3.36,2.22c-8.06,1.62-14.59-4.62-17.34-11.46l4,1h0c2.52,3.72,3.89,1,6.13-1.81l8,6.19Z"/><path class="cls-18" d="M383.12,373.59c-.21-.93-.43-1.86-.76-3.32l-3.6,2.36-1.05-.56q2.12-4.51,4.25-9c.58-.75,1.15-1.51,2-2.57,3.41,6.25,8.09,12,4.05,19.62Z"/><path class="cls-15" d="M307.25,104.69c2.95.7,3.38,2.32,1.4,4.44a47.76,47.76,0,0,1-4.37,3.76c-1.26-.83-2.61-2.45-3.75-2.32-2.56.29-5,1.47-7.5,2.28l-.83-3.76-5.36,1.78c4.36-5.7,10.86-5.47,17-6.11C305,104.65,306.12,104.71,307.25,104.69Z"/><path class="cls-26" d="M388.07,211c0-.67,0-1.35,0-2,3.12-.95,6.26-2.71,9.35-2.63,2.93.07,6.61,1.31,8.55,3.37,3.48,3.68,8.61,6.43,9.07,12.39l-13.06-11-12.59-2.52,3,3.25C390.89,211.82,388.47,216.69,388.07,211Z"/><path class="cls-16" d="M438.15,746.19c-.16-1-.81-2.28-.41-3,2.62-4.45.85-5.64-3.55-5.28-.35,0-.75-.54-1.14-.83l9.21-2.94-3.17,2.17L443,739l6-3.92,1.47.15-2.35,11.89-1.93-1C443.47,741.1,440.82,745.05,438.15,746.19Z"/><path class="cls-4" d="M157.11,561.11l4.81,4.09L160,574.14l-3.77-.07C152.41,569.48,156.14,565.38,157.11,561.11Z"/><path class="cls-12" d="M83.08,800.18l-5,0h0l1-2c5.72-.7,11.48-1.16,17.12-2.25,1.49-.29,2.61-2.5,3.9-3.82l2.12.1c-1.86,3.84-.3,7,2.09,9.89-1.49-.41-3.26-.44-4.43-1.3A14.53,14.53,0,0,0,84,799.94,2.46,2.46,0,0,1,83.08,800.18Z"/><path class="cls-4" d="M170,549l-9.94,2.1q1.89-5.16,3.79-10.31l3.24,1.32,3.83.16C170.57,544.49,170.26,546.74,170,549Z"/><path class="cls-15" d="M370.07,379l7.61,6.11c-.15,1.64-.29,3.28-.43,4.93-2.59.84-4.88,1.22-6.6-1.8-.62-1.07-2.35-1.5-3.57-2.23C368.08,383.71,369.07,381.37,370.07,379Z"/><path class="cls-18" d="M551,372.26,549.29,376l-9.95-3.36L542.1,368Z"/><path class="cls-9" d="M443.09,789.15l-9-5,2.4-2.31c5.74,1.94,5.4-2.21,5.72-5.7l2,0c.33,3.59.66,7.19,1,10.78Z"/><path class="cls-9" d="M446.18,746.14l1.93,1-1.11,7c-2.16,1.15-.82,5.77-4.94,5h0l-2-6.84C444.68,752.78,446.14,750.16,446.18,746.14Z"/><path class="cls-18" d="M557.43,381.6c-2.12-1.6-4.24-3.2-5.44-4.12.41-2.38.68-4,1-5.54l.8-1.08c1.9,2,4.17,3.87,5.53,6.23C559.77,378,558.11,380.06,557.43,381.6Z"/><path class="cls-27" d="M392.38,211.8l-3-3.25L402,211.07l-1.52,2.8-2.34.26Z"/><path class="cls-13" d="M443.09,789.15l2.09-2.17,5.56-1.11c.71,2.71,1.28,4.91,1.85,7.1l-5.66-3.64C446.09,791,444.84,792.39,443.09,789.15Z"/><path class="cls-21" d="M533.58,336.77,530.14,338l-8-4,.91-2.56Z"/><path class="cls-20" d="M323.75,92.72c.21,1.26.48,2.5.62,3.77.27,2.48.47,5,.7,7.47h-3v0l-1.9-6Z"/><path class="cls-25" d="M433.55,150.21c-3-2-2.73-7,.52-10.07C433.9,143.49,433.72,146.85,433.55,150.21Z"/><path class="cls-15" d="M376.82,405c-.83,1.88-1.65,3.77-2.66,6.06,0-4.27-.22-8.33.13-12.34.1-1.25,1.72-2.36,2.65-3.53Z"/><path class="cls-18" d="M320.16,98q.94,3,1.9,6c-4.39,0-3.75,3.38-4.1,6.1-.7-.94-1.39-1.89-2.09-2.82Z"/><path class="cls-16" d="M409.08,202l9.29,1,.07.18c-.17,4.47-2.36,4.35-5.28,2.27-1.44-1-2.73-2.26-4.08-3.4Z"/><path class="cls-17" d="M422.28,174.58a71.76,71.76,0,0,1-8-3.12c-1.32-.69-2.16-2.3-3.22-3.49l13.44,4.09Z"/><path class="cls-5" d="M458.43,729c-1.18-3.8.16-5.28,5.24-5.77Z"/><path class="cls-3" d="M190.58,461.85l-6.36-6Z"/><path class="cls-7" d="M461.33,580.14q-2.06-3.81-4.1-7.64Q459.27,576.32,461.33,580.14Z"/><path class="cls-12" d="M474.08,408l-1.67-3.85,4.63,1.69Z"/><path class="cls-15" d="M269.94,155c.63,1.89,1.25,3.78,1.88,5.67C271.19,158.73,270.57,156.84,269.94,155Z"/><path class="cls-7" d="M457,572.09,454.11,568Z"/><path class="cls-11" d="M177.06,511.14l-3.23.87,1.15-2.95Z"/><path class="cls-11" d="M167,542.09l-3.24-1.32v-1.58Z"/><path class="cls-18" d="M390.2,475l-3.1-1.39Z"/><path class="cls-21" d="M546.19,346.2l1.44-3.15Z"/><path class="cls-3" d="M181.11,453.86l-1.93-1.15Z"/><path class="cls-3" d="M184.28,455.87,182,454.1Z"/><path class="cls-18" d="M441.85,548.07c-.59-.66-1.18-1.33-1.76-2C440.67,546.74,441.26,547.41,441.85,548.07Z"/><path class="cls-7" d="M190.13,686.38l2-2.22Z"/><path class="cls-5" d="M394.85,748.13c.21,1,.43,1.93.65,2.9C395.28,750.06,395.06,749.1,394.85,748.13Z"/><path class="cls-11" d="M208.07,377c-.24.67-.48,1.34-.73,2C207.59,378.38,207.83,377.71,208.07,377Z"/><path class="cls-4" d="M155.28,578.16l-.65,2Z"/><path class="cls-18" d="M555.1,383.9l1.22-.83Z"/><path class="cls-8" d="M126.05,751.19c.33-.35.66-.69,1-1C126.71,750.5,126.38,750.84,126.05,751.19Z"/><path class="cls-5" d="M437.08,543.09l1.8,1.62-1.75.42-.08-.07Z"/><path class="cls-7" d="M437.08,543.09l0,2c-4.19,2.71-8.76,5-12.47,8.26-3.51,3.09-6,3.88-9-.71,3.19-3.74,1.29-6.69-1.9-9.52-2.36-2.09-4.48-4.45-6.72-6.68-2-2-3.67-4.34-7.23-2.85-.81.34-2.36-1.06-4.09-1.92,1.37-1.64,2.26-2.77,3.23-3.83,2-2.25,1.3-4.11-.57-6.06s-3.59-1.92-5.46.07a44.86,44.86,0,0,1-3.73,3.26l-1,0,0,0-1-1h0c-.93-3.36,1.27-7.66-3-10-.76-1.22-1.24-2.89-2.33-3.6-5.48-3.59-11.13-6.94-16.71-10.37l12-11,7.89-2.75c10.26,10.83,21.94,21.49,30.62,34.75,7.4,5.6,14.55,11.47,17.21,21.28Z"/><path class="cls-5" d="M318.49,477.19c6.32-7.24,14.89-8.91,23.1-11.57-5.5,8.43-9.51,18.2-19.77,20.12-10.88-7.82-21.65-14.91-31.66-22.94-7.83-6.28-14.78-13.67-22-20.7-1.05-1-1.36-2.82-2-4.25l1-1.09c5.86,3.84,12.2,7.12,17.47,11.64,10.17,8.74,19.69,18.22,29.6,27.26C315.36,476.65,317.25,476.77,318.49,477.19Z"/><path class="cls-3" d="M365.07,500.06c5.58,3.43,11.23,6.78,16.71,10.37,1.09.71,1.57,2.38,2.33,3.61.06,1.16.09,2.32.17,3.48s.66,2.9.24,3.17c-4.44,2.88-7.09,8.7-13.48,8.39q-5.49-5.52-11-11c1-1.38,1.93-2.75,3.64-5.18L357,515.09a42.12,42.12,0,0,1,1.85-4.24C360.85,507.22,363,503.65,365.07,500.06Zm.75,11.19a1.39,1.39,0,0,0-.14-.42s-.24.06-.37.09a1.15,1.15,0,0,0,.14.43S365.69,511.29,365.82,511.25Z"/><path class="cls-7" d="M363,538.08c1.61,3.32,0,4.69-3.11,4.77A11.77,11.77,0,0,0,349,552c-1.21-.38-2.7-.44-3.58-1.2-3.69-3.2-7.2-6.6-10.17-9.36l4.9-6.31c5.6-2.75,6.59-4.57,4.92-9.1l3-2.95Z"/><path class="cls-5" d="M354.87,482c-1.06,8.69-3.79,13.88-10.88,16.21-8.39,2.77-16.63,6-25.21,8.49C330.07,498,341.2,489.23,354.87,482Z"/><path class="cls-17" d="M363,538.08l-15-15,7-6,3.15,3,1.88,1.89c1.64,2.51,3,5.28,5,7.47C369.19,534,369,535.48,363,538.08Z"/><path class="cls-10" d="M357,515.09l6.73-2.22c-1.71,2.43-2.68,3.8-3.64,5.18l-3-.95L357,517Z"/><path class="cls-10" d="M358.19,520.07,355,517h2l.07.07C357.46,518.09,357.83,519.08,358.19,520.07Z"/><path class="cls-7" d="M250,528.1c-5,11.82-9.83,23.7-15,35.44-3.44,7.81-7.34,15.43-11,23.13-1.43,3-3.42,4.19-6.8,2.68a45.23,45.23,0,0,0-9.28-3.18C202,584.94,196.51,580.1,190,584c10-27.43,19.95-54.86,30.29-83.29L209,499.07l1-4,2.11-1.89,10.9,5a24.9,24.9,0,0,0,10.21,18.59C238.64,520.8,244.42,524.34,250,528.1ZM206.92,547l1.15.27c.54-2.13,1.09-4.26,1.63-6.39l-1.22-.26Zm-6.83,19,1.09.23c.29-1.35.59-2.69.88-4l-.82-.17C200.86,563.35,200.48,564.67,200.09,566Zm4.25-10.66h.42v-1.51h-.42Zm7.16-19.92c.11-.06.27-.1.3-.18a.85.85,0,0,0,0-.38l-.46.25Zm-1,3.07.21-.69-.38.11Zm-14.8,40.3c-.11,0-.26,0-.31.08a.92.92,0,0,0-.08.38l.52-.11Z"/><path class="cls-11" d="M210,495c-.33,1.34-.65,2.68-1,4-4.52,12.69-8.94,25.41-13.58,38.06-3.56,9.66-7.53,19.18-11,28.86-1.78,4.91-2.91,10-4.33,15.08l-11.08-3-9-4,1.89-8.94c5.59.29,11.2.85,16.78.71,1.66,0,3.9-1.7,4.76-3.24,1.31-2.33,1.64-5.21,2.29-7.53L170,549c.31-2.24.62-4.49.92-6.73,5.26-.19,10.81.54,15.66-1,2.48-.78,4.13-5.44,5.2-8.66.28-.85-2.79-3.3-4.71-4.28-2.84-1.45-6-2.25-9.05-3.34q1.54-7.47,3.08-14.94l3.95-1c-.35,2.79-.69,5.59-1,8.38,2.21-1,3.64-3.68,4.27-3.51,4.26,1.19,3.49-2.32,3.68-4,.62-5.49.9-11,1-16.56,0-1.09-1.26-2.21-1.94-3.32q4-11.46,8-22.93l8.12,1c-3.79,10.29-7.56,20.59-9.31,32.23Zm-12.68,8.28h.41v-1.5h-.41Z"/><path class="cls-26" d="M337.07,407h-4.81c-1.17-4.78-2.18-8.89-3.19-13q3.53-18.63,7-37.26l-2.06-.37c-1.95,8.49-3.89,17-5.88,25.48-1.34,5.73-2.75,11.44-4.12,17.16-1-.79-2.81-1.65-2.75-2.36.35-4.23,1.13-8.43,1.77-12.65s1.49-8.32,2.38-13.31L320.74,372c.49,1.3,1.24,2.46,1.31,3.65.15,2.78,0,5.57-.06,8.36q-3,5.55-6,11.08a37.94,37.94,0,0,0-4.33-3.91c-2.72-1.82-5.63-3.36-8.46-5,.28-2.59.38-5.22.88-7.77,1.58-8.14,3.32-16.26,5-24.38,3-1.38,5.92-2.9,9-4.08,3.89-1.5,7.44-6.06,12.23-1.61.27.26,1.81-.85,2.76-1.32,1,1.86,2.45,3.61,3,5.61,1.47,5,3.71,10.2,3.59,15.28C339.4,381,338,394,337.07,407Z"/><path class="cls-11" d="M233.14,423c-4.5.63-5.65-1.74-4.95-5.62.35-1.93.92-3.82,1.66-6.81l59.39,5.68-2.34,12.38c-10.61-.89-20.62-1.72-30.62-2.61a8.43,8.43,0,0,1-2.21-.9l-13.34-6C236.57,417.24,234.21,418.85,233.14,423Z"/><path class="cls-11" d="M343.1,420.16c-.38.48-.76,1-1.42,1.79h5.51a55.61,55.61,0,0,0-3.18,7.1c-.89,3-2.32,4.24-5.61,4.07-14.51-.75-29-1.25-44.07-1.86l2-13.65,39.72,2.45h5.85Z"/><path class="cls-10" d="M337.09,420.06h-1c.61-3.31,1.31-6.59,1.75-9.92.13-1-.47-2.06-.73-3.1.94-13,2.33-26.08,2.61-39.13.12-5.08-2.12-10.25-3.59-15.28-.58-2-2-3.75-3-5.61-2.37-3.25,2.6-2.45,2.46-4.46l4.52,1.11-1,2.61,17,7.05-15.68,9.22,2.23,4.56,7.8-6L349.05,372c-4.83,2-2.12,6.94-3.91,10.13q-.11,7.92-.2,15.86a41.73,41.73,0,0,0-2.81,5.27c-1.19,3.2-2.06,6.51-3.07,9.78l-1.95,2C337.1,416.71,337.1,418.39,337.09,420.06Z"/><path class="cls-21" d="M294.05,403c-.33,0-.71.12-1,0-5.9-2.66-11.81-4.32-18.05.78l3.07-19.74q2-7.49,4-15l2,3,1.93,2.05c1.75,6.95,6.06,9.26,13.06,7-.32,1.92-.54,3.87-1,5.76C296.76,392.25,295.39,397.63,294.05,403Z"/><path class="cls-21" d="M250,388.05c0-.33,0-.67.08-1,3.49-9.38,5.61-9.86,11.78-9.62,4.16.16,8.32.34,12.47.51L272.85,390a65.43,65.43,0,0,1-1.87,7,36.68,36.68,0,0,1-2.89,5c-3.6-3.83-7.73-5.89-13.06-3.88l-2.94-1.23-.9-.91Z"/><path class="cls-10" d="M210,495l-12.19,5.26c1.75-11.64,5.52-21.94,9.31-32.23.74-.62,1.39-1.6,2.23-1.8,2.47-.58,5-.85,8.12-1.34.75,1.45,1.9,3.65,2.8,5.37-.74,1.41-2,2.83-2.1,4.29-.06,1.86.89,3.75,1.4,5.63l1.55-.26c.58-1.2,1.17-2.39,1.75-3.59l1.51,0c.29,2.85.58,5.69.88,8.54l-.78.25c-.3-.51-.48-1.2-.92-1.51-7-5-8.59-4.43-10.62,4.13-.41,1.74-.56,3.55-.83,5.32Z"/><path class="cls-21" d="M344.94,398q.09-7.93.2-15.86c1,1.39,2.05,2.81,3.11,4.19,2.47,3.2,4.79,6.76,9.79,4.59a22.58,22.58,0,0,1,.35,3.55c-.45,6.89-2.76,13.84.78,20.58-.39.28-.92.89-1.16.79-5.72-2.31-10.16,1.1-14.89,3.25L343,419Z"/><path class="cls-10" d="M294.05,403c1.34-5.39,2.71-10.77,4-16.18.45-1.89.67-3.84,1-5.76l.06-10,2-5,1-2c.33-1,.66-2,1-3,.33-1.34.65-2.67,1-4l5-3c-1.67,8.12-3.41,16.24-5,24.38-.5,2.55-.6,5.18-.88,7.77L300,404C297.93,404.16,295,409.3,294.05,403Z"/><path class="cls-10" d="M370.07,379c-1,2.33-2,4.67-3,7q-1.41,6-2.83,12.1L361.1,400l0-14c.29-1.37.57-2.73.86-4.09s.75-2.62,1.13-3.93q1.49-9,3-18.06c2.78-3.34,4.87-1.38,6.92.9Q371.54,370,370.07,379Z"/><path class="cls-4" d="M300,404l3.24-17.84c2.83,1.66,5.74,3.2,8.46,5a37.94,37.94,0,0,1,4.33,3.91c2.26,6.4,2.26,6.4-.18,9.54a7.7,7.7,0,0,1-2.09-.78c-4.05-3-7.93-3.85-11.71.47C301.78,404.62,300.69,404.14,300,404Z"/><path class="cls-25" d="M324.05,399.05c1.37-5.72,2.78-11.43,4.12-17.16,2-8.49,3.93-17,5.88-25.48l2.06.37q-3.51,18.63-7,37.26C327.35,395.66,328.67,400.34,324.05,399.05Z"/><path class="cls-18" d="M361.13,386l0,14c0,3.74.13,7.48-.13,11.2-.09,1.32-1.17,2.56-1.8,3.84-3.54-6.74-1.23-13.69-.78-20.58a22.58,22.58,0,0,0-.35-3.55Z"/><path class="cls-10" d="M272.85,390l1.47-12.1,7.75-11.9c0,1,0,2,0,3q-2,7.49-4,15Z"/><path class="cls-4" d="M233.14,423c1.07-4.14,3.43-5.75,7.59-3.88l13.34,6Z"/><path class="cls-15" d="M255,398.14c5.33-2,9.46.05,13.06,3.88a87.44,87.44,0,0,1-9.73-1.06C257.11,400.7,256.13,399.12,255,398.14Z"/><path class="cls-10" d="M322,384c0-2.79.21-5.58.06-8.36-.07-1.19-.82-2.35-1.31-3.65l4.71-1.29c-.89,5-1.64,9.15-2.38,13.31Z"/><path class="cls-15" d="M251.19,396l.9.91-2.07,2-2.08-2.1Z"/><path class="cls-10" d="M227.81,480l-.13.34-.38-.4.28-.25Z"/><path class="cls-21" d="M343.1,420.16l-1.2-.1L343,419l.11.09C343.12,419.45,343.11,419.8,343.1,420.16Z"/><path class="cls-10" d="M364.11,400.79l1,1.25Z"/><path class="cls-20" d="M321.18,118.05l-2.79,3.06c4,2.72,6.92,1.07,9.62-5.32,2.18,3.66,1.59,7.41-1.37,9.88-4.53,3.78-6.11,7.8-3.51,13.21-4.54,3.28-4.11,7.93,1.26,13.43-.13,2.2-.27,4.41-.4,6.62l-1.9-.78c-1.12-1.28-2-2.9-3.4-3.79-6.5-4.24-13.12-8.28-19.7-12.4,3.35-1,5.65-7.84,4-11.94l7.17.17c.29-.44.85-1.25.84-1.26-2.69-1.93-5.42-3.8-8.15-5.68q2.87-4.16,5.72-8.33a45.46,45.46,0,0,1,4.68.68c2.55.63,5,1.45,7.58,2.19Z"/><path class="cls-17" d="M400.11,157.94l-8.05-3a24.34,24.34,0,0,0-16-4l-.9-1.64-9,5.74c-1.31,1-2.5,2.38-4,2.79-9.33,2.57-18.73,4.92-28.11,7.35l-6.11-5.16h19.34l0-1.44L332.08,157c.22-.87.82-1.86.59-2.58-.7-2.18-1.72-4.26-2.62-6.38q.58-3.09,1.15-6.18c.61,1.52,1.66,3,1.74,4.56.2,3.88,1.8,6.51,5.33,8.23,9,4.38,20.92-2.23,21.82-12.13a49.31,49.31,0,0,1,1-4.84c5.78,10.38,15.57,8.92,23.67,11.19C390.88,150.51,396.38,152.59,400.11,157.94Zm-21.32-8.36a1.41,1.41,0,0,0,.43.13s.08-.23.13-.35a1.41,1.41,0,0,0-.43-.13S378.84,149.46,378.79,149.58Z"/><path class="cls-25" d="M336.31,143.3c-.29-6.73,5.44-9.84,12.86-7s8.48,10.12,2,15.42c-1.16-1-2.19-2.25-3.53-2.77s-3.16-.41-4.76-.56c1.13-.13,2.43,0,3.36-.47a42.55,42.55,0,0,0,4.77-3.43c-1.22-1.3-2.2-3.11-3.69-3.81-4.05-1.89-6.16-.49-7.59,4.49Z"/><path class="cls-20" d="M422.07,150.76c-1.17,1-2.47,2.82-3.5,2.68-2.89-.38-6.76-.08-7.27-4.37-.57-4.79-1.26-9.77,4.63-12.79l6.16,2.7c-3.52.21-7,6.45-5.34,9.57C417.92,150.77,418.88,153.45,422.07,150.76Z"/><path class="cls-10" d="M331.2,141.81q-.57,3.09-1.15,6.18c-.84.62-1.7,1.22-2.51,1.88s-1.81,1.58-2.72,2.37l-.42.07c-5.38-5.5-5.81-10.15-1.27-13.43l.92.11c-.43,1.47-.87,2.94-1.31,4.42,4.13,2.06,6.21-.94,8.49-3.44Z"/><path class="cls-28" d="M336.31,143.3l3.4,1.89,3.15,3.22c1.6.15,3.32,0,4.76.56s2.37,1.82,3.53,2.77c-3.24.24-6.75,1.37-9.65.49A7.17,7.17,0,0,1,336.31,143.3Z"/><path class="cls-25" d="M422.07,150.76c-3.19,2.69-4.15,0-5.32-2.21-1.65-3.12,1.82-9.36,5.34-9.57l0,0c.57.92,1.15,1.84,1.73,2.76C423.22,144.73,422.65,147.74,422.07,150.76Z"/><path class="cls-20" d="M318,110c.35-2.72-.29-6.09,4.1-6.1v0c0,.66,0,1.33,0,2l-1.78,2.12,1.26.46c.18-.86.35-1.71.53-2.57h3c1,2.81,2,5.63,3,8.45Z"/><path class="cls-17" d="M331.23,140c-2.28,2.5-4.36,5.5-8.49,3.44.44-1.48.88-2.95,1.31-4.42,2.05-.4,4.09-.88,6.16-1.13a7.25,7.25,0,0,1,2.41.56Z"/><path class="cls-18" d="M353,130.92H335.58C339.61,127.94,349.69,127.85,353,130.92Z"/><path class="cls-17" d="M407.12,165.91c-3.48-1.06-5.95-3-6-7Q404.12,162.42,407.12,165.91Z"/><path class="cls-18" d="M325.07,106h-3c0-.66,0-1.33,0-2h3Z"/><path class="cls-17" d="M410.21,167.93l-3.07-2Z"/><path class="cls-20" d="M423.8,141.71c-.58-.92-1.16-1.84-1.73-2.76C422.64,139.87,423.22,140.79,423.8,141.71Z"/><path class="cls-17" d="M401.11,159l-1-1Z"/><path class="cls-17" d="M170,666.13c1.63-2.46-.14-3.32-1.87-4.59-5.55-4-10.94-8.3-16.81-12.78l5.52-6.28L152,634.17l1.39-1.08c4.6,5.69,11.81,9,13.71,17.18.24,1,1.28,1.9,1.94,2.85l6,13h0l-4,1Z"/><path class="cls-15" d="M171,667.17l4-1,0,5Z"/><path class="cls-23" d="M373.08,535.09l1,0c4.45-3.55,8.53-3,13.06.34,6.27,4.66,6.45,5.62-.06,9.69l0,0-9.09,10h-1.87l-1.06,2,0,0-11,10.47a88.07,88.07,0,0,1-7-7.81c-.67-.91-.44-3.33.33-4.29,4.2-5.23,8.77-10.17,13-15.34C371.62,538.68,372.21,536.77,373.08,535.09Z"/><path class="cls-7" d="M376.12,555.07H378c4.7,4.86,9.5,9.63,14,14.69.55.62-.6,2.74-1,4.17-6-1.93-8.11,3.51-11.63,6.26a11,11,0,0,1-1.56.82l-9.56-9.6c2.37-5,9.28-7.43,6.82-14.34l0,0Z"/><path class="cls-23" d="M380.4,586.78l21.12-15.89.93.36c-2.52,5.17-4.95,10.39-7.68,15.44-.41.74-2.28,1-3.46.95C388.22,587.55,385.14,587.18,380.4,586.78Z"/><path class="cls-16" d="M371,529.08c6.39.31,9-5.51,13.48-8.39.42-.27-.16-2.07-.24-3.17s-.11-2.32-.17-3.48c4.27,2.36,2.07,6.66,3,10q-6,3.48-12,7c-.69.4-1.4.74-2.1,1.11C372.36,531.11,371.7,530.1,371,529.08Z"/><path class="cls-7" d="M387.06,545.09c5.29,5.06,10.59,10.11,15.84,15.21.17.16-.19.87-.78,3.21l-15-18.44Z"/><path class="cls-7" d="M371,529.08c.66,1,1.32,2,2,3,0,.65,0,1.29,0,1.94l-13-12.09c-.62-.64-1.25-1.27-1.88-1.9-.36-1-.73-2-1.1-3l3,.95Q365.56,523.56,371,529.08Z"/><path class="cls-25" d="M449,735.11,443,739l-3.94-2.67,3.17-2.17C444.4,735.28,447.28,730.91,449,735.11Z"/><path class="cls-18" d="M353.06,552.06l-2.22.87L350,552l8.67-7L357,548.09l-.92.93-1,1.07,0,0-1,1,0,0-1,1Z"/><path class="cls-10" d="M423.1,739.14c-2.73,3.78-6.22,3.71-10,2Z"/><path class="cls-10" d="M410.09,741.14c-4,4.18-8,2-12,0Z"/><path class="cls-10" d="M398.09,741.14h-2c-.28-.73-.56-1.46-.85-2.19l.94-.68Z"/><path class="cls-10" d="M427.1,738.13l-2.06,1Z"/><path class="cls-10" d="M355.05,550.09l1-1.07Z"/><path class="cls-10" d="M354.05,551.09l1-1Z"/><path class="cls-16" d="M387.08,524.05l1,1Z"/><path class="cls-16" d="M388.08,525.05l1,0Z"/><path class="cls-10" d="M353.05,552.09l1-1Z"/><path class="cls-23" d="M267,212.11l13.14,10,1,1.71,3,4.24v1.64c0,1.1,0,2.2,0,3.29-.66.94-1.64,1.79-1.93,2.84-2,7.19-3.92,14.39-5.58,21.66-.39,1.7.32,3.67.53,5.51q1.5,3,3,6c.71,1.8,1.46,3.58,2.13,5.38,1.31,3.55,2.58,7.12,3.87,10.68a18.17,18.17,0,0,1-1.52,2c-4.74,4.56-6.75,3.89-9.51-2.06-1.85-4-4.69-7.49-7.09-11.21l-1.87.93c.25,1.33.57,2.65.72,4,.88,7.54,6.54,12.76,9.3,19.37l2,10-2.46,1.68c-6.94,4.75-6.56,4.51-11.33-2.91-5.62-8.77-11.8-17.25-20.93-22.89a53,53,0,0,0-5.38-2.55c-.3.44-.61.87-.92,1.31,4.33,12.82,18.67,16.86,25.74,27.9L255,313.1c-5.83-2.44-10.82-7.49-17-6.06l13.18,8.33-28.37,12.34.48,1.62a44.56,44.56,0,0,0,5.78,2.52c1.82.51,4.52,1.36,5.59.51,7-5.53,13.6-11.49,20.35-17.31l4.12-1.59c3.32-1.29,5.8-2.07,7.46,2.84.93,2.74,4.77,4.51,7.29,6.72q1,6.48,1.91,13c-1.59,4.07-3.59,8.05-4.66,12.25-1.57,6.15-5,9.48-11.37,9.77a20.56,20.56,0,0,1-4,0c-8.5-1.35-16,2.55-24,4-9.65,1.76-17.9-3.31-25.58-8.67-.56-.39-.65-2.17-.31-3.06,4-10.47,8.39-20.78,12.06-31.36,2-5.7,3.78-11.84,3.7-17.75,0-3.2-3.94-6.6-6.59-9.44-2.37-2.55-1.87-4.45-.25-7,3.87-6.1,8-11.71,15.17-14.5,1.38-.54,2.77-2.89,2.9-4.51.63-7.68.42-15.44,1.3-23.08.67-5.87,2.49-11.63,3.89-17.41.26-1,.74-2.45,1.56-2.91C248.2,217.49,256.44,211.64,267,212.11Z"/><path class="cls-12" d="M373,360.86c-2-2.28-4.14-4.24-6.92-.9l-2.08.13c-.77-.25-1.79-.28-2.28-.8-3.16-3.43-6-2.25-8.84.39a13.14,13.14,0,0,1-2.5,1.47l-7.8,6-2.23-4.56,15.68-9.22-17-7.05,1-2.61-4.52-1.11c.14,2-4.83,1.21-2.46,4.46-.95.47-2.49,1.58-2.76,1.32-4.79-4.45-8.34.11-12.23,1.61-3.06,1.18-6,2.7-9,4.08l-5,3-2,0a8.69,8.69,0,0,0-7,5.94c-1.69-3.73-3.35-.59-5,0l-2,0-1,0a68,68,0,0,1-2.41-8c-.77-4.28-1.13-8.63-1.66-13,2.68,6.13,2.68,6.12,9.94,4.17,1.93-.52,3.85-1,5.78-1.53,8.58-2.25,17.17-4.46,25.75-6.74,3.76-1,3.91-3.25,2.47-6.5-.62-1.41-.07-3.35-.05-5.06l5.1,1.35L330.26,329c.62,3,1.23,6,1.85,9l7.19-2.31c.37.26,2,1.32,3.5,2.53,5.94,4.78,11.65,9.88,17.86,14.28,2.07,1.46,7.09,2.43,7.85,1.43,3.06-4.08,6.88-3.94,11.09-4.12,1.36-.06,3.85-1.89,3.77-2.73-.43-4.88,2.19-4.81,5.14-3.28,4.08,2.11,5.64-1,7-3.32,1.86-3.06-1.28-3.77-3.19-4.93a14,14,0,0,1-2-1.73l.69-1.31,8.05,4.31q0,3-.05,6.06c0,.69-.05,1.38-.07,2.06-2.59.56-5.2,1-7.74,1.73-.91.26-1.63,1.2-2.44,1.83L383,353.09c-2.19,2.19-4.28,4.48-6.6,6.51C375.54,360.34,374.16,360.46,373,360.86Z"/><path class="cls-11" d="M282.08,369.07c0-1,0-2,0-3,4.57,5.43,10.16,7.38,17,5l-.06,10c-7,2.26-11.31-.05-13-7l1.51-1.28L284,372Z"/><path class="cls-28" d="M275.85,336q-1-6.5-1.91-13c-.25-3.49,2.25-4.27,4.86-4.95q1.13,10,2.24,20c-.57,2.49,1.87,6.27-3,6.94h0l-.95-1.92C276.7,340.72,276.28,338.36,275.85,336Z"/><path class="cls-25" d="M278.08,345c4.83-.67,2.39-4.45,3-6.94l1,.91,1,3.08,0,0c.53,4.33.89,8.68,1.66,13a68,68,0,0,0,2.41,8l-1,1c-2.58.44-3.87-.44-4.38-3.24C280.73,355.49,279.31,350.26,278.08,345Z"/><path class="cls-11" d="M210.68,374c3.7,2.21,7.2,4.24,10.6,6.44a2.21,2.21,0,0,1,.28,2.12,5.26,5.26,0,0,1-2.91,1.44C212.91,384.34,210.07,381,210.68,374Z"/><path class="cls-7" d="M277.16,347.49c-2.22,5.33,1.21,11.12-4.88,14.26C269.46,358,271.21,351.89,277.16,347.49Z"/><path class="cls-26" d="M290.05,363.05c1.67-.61,3.33-3.75,5,0,.12.83.24,1.66.43,3h-5.44C290.06,365,290.05,364.05,290.05,363.05Z"/><path class="cls-26" d="M302.08,357.09l2,0c-.33,1.33-.65,2.66-1,4Z"/><path class="cls-26" d="M290.06,366l-1.2,1.52-.32-.33,1.52-1.2Z"/><path class="cls-26" d="M302.07,364l-1,2Z"/><path class="cls-25" d="M277.13,343.09l.95,1.92Z"/><path class="cls-26" d="M286.08,364l1-1,1,0Z"/><path class="cls-19" d="M489.1,352c-1.06.09-2.27.56-3.15.21-4-1.62-7.91-3.46-11.85-5.23a25,25,0,0,0-2.87-1.9c-12.65-6.13-25.39-12.07-38-18.34-11.54-5.76-22.86-12-34.39-17.78-6.46-3.25-13.16-6-19.76-9l.43-6.14h-4.88a28.87,28.87,0,0,1,1.35-5.46,13.62,13.62,0,0,1,3.57-5.27c1.32-1,3.95-1.67,5.3-1,12.53,6,24.92,12.24,37.29,18.53,1.5.76,2.65,2.2,4,3.32.12.9,0,2.43.4,2.6,4.8,2,9.68,3.69,14.54,5.49,5.4,2.85,10.79,5.72,16.24,8.46.28.14,1.17-1,1.77-1.47l3,2c.79,1.09,1.33,2.66,2.4,3.21,13.65,7,27.33,14,41.13,20.8,7.37,3.6,15,6.7,22.51,10,2.06,3.2,3,6-.78,9-1.59,1.28-2,4-3.29,6.93-9.48-4.63-19.15-9.19-28.63-14.12-1.53-.79-2.25-3.17-3.34-4.81-.38-1.53-.28-3.67-1.26-4.45-1.94-1.53-4.52-2.83-6.85.67Zm.43-10.94c.11-.55.23-1.09.34-1.64l-11.57-5.8-1.15,1c.43,1.09.68,3,1.31,3.14C482.21,338.62,485.13,343.26,489.53,341.09Zm6.86,3.9,0,1.61c3.07,1.56,6.1,3.22,9.26,4.6.77.34,2-.26,2.95-.43-.47-.9-.71-2.18-1.46-2.64a40.71,40.71,0,0,0-7.09-3.52C499,344.23,497.61,344.84,496.39,345Z"/><path class="cls-21" d="M297,273c1.24-.32,2.49-1,3.7-.91,8.21.62,16.61.27,24.34,3.93.45.21,1,.69,1.35.57,8.76-3.27,14.1,4.37,21.08,6.7,4.06,1.36,7.74,3.83,11.6,5.8-.74,1.07-2,2.11-2.07,3.22-.09,1.26.88,2.59,1.39,3.89q-1.08,3.75-2.18,7.49c-2.58,3.52-6.14.68-9.15,1.41-7,1-14.15,1.21-20.83,3.17-8.58,2.52-15-.3-21-5.75-1.47-1.34-2.66-3.2-4.37-4-5.62-2.74-7.46-6.66-4.79-12.46v0Q296.52,279.5,297,273Z"/><path class="cls-26" d="M296.07,286c-2.67,5.8-.83,9.72,4.79,12.46,1.71.83,2.9,2.69,4.37,4,6,5.45,12.4,8.27,21,5.75,6.68-2,13.87-2.18,20.83-3.17-2,1.15-3.89,2.65-6,3.36-3.51,1.16-7.2,1.73-10.78,2.7-3.18.86-6.25,2.38-9.47,2.84-10.57,1.54-21.17,2.82-31.78,4a98.46,98.46,0,0,1-10.17.11c-2.61.68-5.11,1.46-4.86,4.95-2.52-2.21-6.36-4-7.29-6.72-1.66-4.91-4.14-4.13-7.46-2.84l-4.12,1.59,0-1.95,7.77-2.54c-7.07-11-21.41-15.08-25.74-27.9.31-.44.62-.87.92-1.31a53,53,0,0,1,5.38,2.55c9.13,5.64,15.31,14.12,20.93,22.89,4.77,7.42,4.39,7.66,11.33,2.91l2.46-1.68,1.83,1.58,1.38-.17c-.41-2.85-1-5.68-1.16-8.54-.09-1.37.12-3.68.9-4,5-2.34,7.64-6.53,9.64-11.36.12-.3.87-.34,1.33-.5Z"/><path class="cls-15" d="M372.16,271.92c-.86.42-2,.63-2.54,1.3-3.5,4-6.12,4.45-10.41,1.4-.4-.28-.7-.75-1.13-1q-14.5-7.29-29.06-14.5a5.6,5.6,0,0,0-1.95-.22l-21.79-12.4c3.21-6.9,3.25-7,9.76-4,3,1.36,5.7,3.29,8.65,4.74,12.45,6.09,24.9,12.2,37.45,18.09,3.45,1.61,7.27,2.46,10.91,3.65C372.09,270,372.13,271,372.16,271.92Z"/><path class="cls-16" d="M399.07,343q0-3,.05-6.06c.32,0,.65.07,1,.09.05,4,3.75,3.67,6.05,5l1,0c.29,0,.58,0,.86,0l3.13,1,0,0c4.2,4,7.92,4.81,11.29,2.3,2.07-1.54,4-3.31,6.66-5.59l-9.92-3.7c-.95-3.74-4.09-3.67-7-4a37.35,37.35,0,0,1-3.7-1.38q-14.69-7.26-29.33-14.6c-.1-3-4.83-4.31-3-8h2c6.59,4.3,12.88,9.18,19.83,12.79,20.6,10.68,41.45,20.86,62.2,31.23l1,2-5.28-.8a.92.92,0,0,1-.73-.45l-1.1-.65-12.85-5-3,0c-5-1.86-9.87-1.48-14.17,1.59s-8.49,2.29-12.84,0C407.18,346.62,403.09,344.86,399.07,343Z"/><path class="cls-17" d="M372.05,269c-3.64-1.19-7.46-2-10.91-3.65-12.55-5.89-25-12-37.45-18.09-2.95-1.45-5.67-3.38-8.65-4.74-6.51-3-6.55-2.87-9.76,4l21.79,12.4c0,.35,0,.71,0,1.07l-25.42-12,6.47-13.56L299,232c-2.65,3.85-5.32,7.71-7.95,11.58a14.79,14.79,0,0,0-.9,1.86L286.1,244q-1-5.5-2.06-11c0-1.09,0-2.19,0-3.28l4.6,11.78c1.95-3.83,4.1-7.21,5.44-10.89,1.72-4.71,4.33-5.21,8.14-2.7,2.54,1.68,6.9,3.26,7.09,5.21.3,3.09,2,3.44,3.69,4.31,14.81,7.47,29.64,14.92,44.53,22.23,1.85.9,4.11,1,6.19,1.4l3.27,3.1Z"/><path class="cls-10" d="M379.11,300c6.6,3,13.3,5.76,19.76,9,11.53,5.79,22.85,12,34.39,17.78,12.58,6.27,25.32,12.21,38,18.34a25,25,0,0,1,2.87,1.9c-1.39,3.66-3.66,1.66-5.54.73-12.05-5.95-24.05-12-36.08-18-8-4-16-8.06-24.12-11.77-3.1-1.41-6.47-1.53-9.13-4.61-2.25-2.61-4.21.14-5.15,2.66l-4-2c.34-5.67-3-8.06-8-9l-5.17-3.87-1-1Z"/><path class="cls-19" d="M299,232l9.1,2.41L301.64,248l25.42,12,23,13.14-.69,1.8a25,25,0,0,1-4.65-1.25Q321.12,262,297.56,250.23c-5.12-2.55-5.56-4.15-2.84-9.31C296.26,238,297.59,235,299,232Z"/><path class="cls-17" d="M390.07,314l4,2c6.12,3.24,12.2,6.56,18.38,9.68,15,7.59,30.08,15,45.05,22.7,1.17.6,1.74,2.39,2.58,3.63-20.75-10.37-41.6-20.55-62.2-31.23-6.95-3.61-13.24-8.49-19.83-12.79l-1.17-6.86,5.17,3.87C384,308.7,385,313.12,390.07,314Z"/><path class="cls-18" d="M528.15,355c-7.51-3.33-15.14-6.43-22.51-10-13.8-6.76-27.48-13.77-41.13-20.8-1.07-.55-1.61-2.12-2.4-3.21,7.49,3.59,15,7.12,22.45,10.8q19.89,9.84,39.67,19.88C525.72,352.42,526.85,353.88,528.15,355Z"/><path class="cls-4" d="M376.89,301.15l1.17,6.86h-2L359,305.81l5-13.66,11,7,1,.89v.07Z"/><path class="cls-8" d="M276.11,298c-2.76-6.61-8.42-11.83-9.3-19.37-.15-1.34-.47-2.66-.72-4l1.87-.93c2.4,3.72,5.24,7.23,7.09,11.21,2.76,5.95,4.77,6.62,9.51,2.06a18.17,18.17,0,0,0,1.52-2l1,0c-1.06,1.85-1.85,3.94-3.24,5.5C281.45,293.18,278.7,295.52,276.11,298Z"/><path class="cls-4" d="M290.36,266.67l6.48-8.84,19.09,9.59-.42,1.18Z"/><path class="cls-18" d="M284,233q1,5.5,2.06,11-4.53,9.5-9,19c-.21-1.84-.92-3.81-.53-5.51,1.66-7.27,3.61-14.47,5.58-21.66C282.4,234.78,283.38,233.93,284,233Z"/><path class="cls-21" d="M372.05,269l-5-4.84a2.12,2.12,0,0,1,1-.16l9.1-4c-1.21,4.5,3.65,3.85,5.14,6.06-.16,1.29-.31,2.59-.47,3.88a2.47,2.47,0,0,0-.61-.05l-5.59,3.72-3.4-1.68C372.13,271,372.09,270,372.05,269Z"/><path class="cls-4" d="M296.07,286,292,285c-.29-3.05-.66-6.1-.86-9.15-.26-4.13,1.43-5.08,4.9-2.83q0,6.51,0,13Z"/><path class="cls-27" d="M364,292.15l-5,13.66-.92.37-1.91-2.52q1.1-3.74,2.18-7.49c1.77-1.79-.09-6.24,4.43-6Z"/><path class="cls-18" d="M287.06,285l-1,0c-1.29-3.56-2.56-7.13-3.87-10.68-.67-1.8-1.42-3.58-2.13-5.38C288.24,272.73,289.87,276.47,287.06,285Z"/><path class="cls-18" d="M459.09,319c-.6.52-1.49,1.61-1.77,1.47-5.45-2.74-10.84-5.61-16.24-8.46h3Z"/><path class="cls-16" d="M489.1,352l-5.1-3.77c2.33-3.5,4.91-2.2,6.85-.67,1,.78.88,2.92,1.26,4.45Z"/><path class="cls-11" d="M368.44,293.29l7.1-14.14,1.87,1q-3.54,7.15-7.06,14.3Z"/><path class="cls-18" d="M441.08,312c-4.86-1.8-9.74-3.54-14.54-5.49-.42-.17-.28-1.7-.4-2.6l8.94,3.08,3,2,2,0c.34,1,.67,2,1,3Z"/><path class="cls-29" d="M522.1,334l8,4,.48,2-.47,1.19c-2.95-1.22-6-2.16-8.8-3.74C519.09,336.21,519.56,334.68,522.1,334Z"/><path class="cls-4" d="M362.8,290.17c-4.52-.24-2.66,4.21-4.43,6-.51-1.3-1.48-2.63-1.39-3.89.08-1.11,1.33-2.15,2.07-3.22Z"/><path class="cls-26" d="M296.06,286q0-6.5,0-13l.93,0Q296.53,279.5,296.06,286Z"/><path class="cls-19" d="M441.09,312c-.34-1-.67-2-1-3,3-1.3,4,.24,4,3Z"/><path class="cls-5" d="M480.09,359l2.82,1.26L481.09,362h0c-.34-1-.67-2-1-3Z"/><path class="cls-19" d="M438.1,309l-3-2Z"/><path class="cls-19" d="M374.17,297c.57-.38.91-.77,1.27-.8s.59.42.89.65c-.32.3-.61.75-1,.84S374.7,297.3,374.17,297Z"/><path class="cls-5" d="M477.1,359l-2-2Z"/><path class="cls-5" d="M480.08,359l-.41-.24.42.22Z"/><path class="cls-19" d="M375.94,300l-1-.89Z"/><path class="cls-25" d="M112.75,744.22c-1.79.26-4.49,1.39-5.22.63-3.14-3.26-5.71-7.07-8.48-10.68q4.44,3,8.89,6l4,3.26Z"/><path class="cls-16" d="M112,743.42l-4-3.26C110.26,740,112.48,740,112,743.42Z"/><path class="cls-14" d="M101.91,730.11c.22-.85.44-1.71.65-2.57l1.15.41-1,2.46Z"/><path class="cls-13" d="M433.08,755.15q-.49,16-1,32c-3.21.55-6.65,2.12-9.57,1.44-7.53-1.74-8.33-3.47-8.47-11.42a66.22,66.22,0,0,0-.86-7.38c-.31-2.26-.68-4.51-1-6.65Z"/><path class="cls-25" d="M446.18,746.14c0,4-1.5,6.64-6.09,6.19l-1.81.72q-.06-3.42-.13-6.86C440.82,745.05,443.47,741.1,446.18,746.14Z"/><path class="cls-15" d="M175.05,666.12l-6-13c-.32-6.34-.82-12.68-.82-19,0-1.34,1.82-2.68,2.8-4,.34,4,1.21,8.08.91,12-.75,10,3.95,17.62,9.58,25a19.05,19.05,0,0,1,1.54,3h0Z"/><path class="cls-21" d="M363.75,261.05c-2.07-.45-4.33-.5-6.18-1.4-14.89-7.31-29.72-14.76-44.53-22.23-1.72-.87-3.39-1.22-3.69-4.31-.19-2-4.55-3.53-7.09-5.21-3.81-2.51-6.42-2-8.14,2.7-1.34,3.68-3.49,7.06-5.44,10.89l-4.6-11.78c0-.56,0-1.1,0-1.65l-3-4.24-1-1.71c.37-.87.49-2.09,1.15-2.57,5.84-4.25,11.69-8.51,17.76-12.42a7.61,7.61,0,0,1,5.76-.93c7,2.41,14.29,4.56,20.66,8.22a65.11,65.11,0,0,1,21.46,19.41c4.5,6.53,8.87,13.15,13.47,19.61.62.86,2.21,1,3.36,1.51C363.76,257,363.76,259,363.75,261.05Z"/><path class="cls-16" d="M286.05,167.94c0-.32,0-.64,0-1,7.54-2.56,11.25-7.47,10.08-15.73-.32-2.21-1.08-5.35,3-5.44v.07l2.92,1.1,19.15,12.81c2.88,8.77,4.67,18,11.27,25.13,3.83,4.13,7.81,8.13,11.34,12.49,2.29,2.81,3.9,6.18,5.81,9.3L348.56,208l-6.58-.88-11.05-14c-1.62-3.18-2.85-6.67-5-9.47-2.46-3.25-5.31-.31-7.95.49-1-.53-1.93-1.14-2.94-1.59q-10.49-4.68-21-9.31l-7.22-3.63Z"/><path class="cls-21" d="M330.93,193l11.05,14c2.64,3.89,5.45,7.68,7.87,11.71,3.19,5.31,6.06,10.81,9.07,16.22.69,1.66,1.5,3.28,2.06,5,1.08,3.28,2,6.62,3,9.93l-16.72-21.5c-9.37-12.07-21.23-21.28-34.06-29.31-3.09-1.94-6.35-3.61-9.6-5.28-6.58-3.37-12.11-10.24-9.55-20.67q10.5,4.65,21,9.31c1,.45,2,1.06,2.94,1.59Z"/><path class="cls-17" d="M364,249.91c-1-3.31-2-6.65-3-9.93-.56-1.7-1.37-3.32-2.06-5,2.11.51,4.6.47,6.26,1.63,4,2.8,7.31,4.05,11.93.56s5.06-4.31.15-8.18c-1.68-1.32-2.86-3.27-4.27-4.93l1.16-1,6.28,5.14c1.44-1.78,2.57-3.36,3.9-4.76,3.84-4.05,7.92-7.77,13.8-8.54-1,1.46-2,2.9-2.95,4.39-2,3.15-3.79,6.44-6,9.47-2.52,3.53-5.36,6.83-8.07,10.23L366.1,253h0l-1.2-.89c-.22.09-.44.16-.66.23Z"/><path class="cls-24" d="M364.2,252.31c.22-.07.44-.14.66-.23l1.2.89h0L368,264a2.12,2.12,0,0,0-1,.16l-3.27-3.1c0-2,0-4.07,0-6.11C363.91,254.06,364.05,253.19,364.2,252.31Z"/><path class="cls-10" d="M282.06,168l-1.69,1.58-.64-1.14,2.33-.44Z"/><path class="cls-19" d="M449.92,398.2c1.83,3,3.52,5.58,5.08,8.27s-.56,9.42-3.06,9.13c-3-.35-5.71-2.6-8.48-4.15-.27-.15-.26-1.35,0-1.84C445.47,405.94,447.57,402.32,449.92,398.2Z"/><path class="cls-23" d="M399.07,343c4,1.9,8.11,3.66,12,5.74,4.35,2.32,8.39,3.2,12.84,0s9.18-3.45,14.17-1.59l3.49,1.37-.35,0,.35.06c.64.79,1.29,1.57,1.94,2.35l.66.84c-.37,1.52-.73,3-.8,3.33l-7.86,1.24c-11.29-.7-12.1-.26-16.46,8.95-.77,1.61-1.59,3.2-2.39,4.8a50.13,50.13,0,0,0-4.68,5,39.31,39.31,0,0,0-2.83,5.56c-8-1.66-10.36-5.37-8.54-12.73.39-1.59.49-3.47,1.43-4.68,5.58-7.26,1.47-12.73-3.07-18.19C399,344.34,399,343.65,399.07,343Z"/><path class="cls-28" d="M416.69,370.05c.8-1.6,1.62-3.19,2.39-4.8,4.36-9.21,5.17-9.65,16.46-8.95l9.8,3.54-.11,1c-2.89,0-5.78.11-8.66,0-10.89-.46-16.76,6.78-18.24,16.51-1.08,7,0,14.41.15,21.63.39,4.63-3,1.34-4.42,2.1-3.88-6.21-2.06-12.83-1.06-19.24C413.63,377.79,415.42,374,416.69,370.05Z"/><path class="cls-29" d="M444.2,351.73l-.66-.84c-.65-.78-1.3-1.56-1.94-2.35l-.35-.06.35,0-.48-1.39,12.85,5,1.1.65a.92.92,0,0,0,.73.45c-1.52,1.68-3.05,3.36-5.32,5.84C448.2,356.39,446.2,354.06,444.2,351.73Z"/><path class="cls-12" d="M478.13,395l2.17.23c-.07.23-.13.46-.19.69l-2.05-.84Z"/><path class="cls-13" d="M93,747.21c0,.65,0,1.29,0,1.94l-1.89,4.39-1.83,6.32-2.18,2.28q-2.45,8.72-4.91,17.42l.12,2.38c-.77,2.75-1.54,5.49-2.3,8.24-1.93.2-4.68-2.89-5,2.11-5.78-6.94-5.56-8.36-.61-15.18a34.19,34.19,0,0,0,4.6-10c2.61-8.41,4.84-16.93,7.23-25.43Z"/><path class="cls-22" d="M80,790.18c.76-2.75,1.53-5.49,2.3-8.24l11.57,3.15c2.8,1.68,7.32,1.86,6.18,7-1.29,1.32-2.41,3.53-3.9,3.82-5.64,1.09-11.4,1.55-17.12,2.25,0-.66,0-1.31-.07-2a9.82,9.82,0,0,1,.21-2,15.59,15.59,0,0,1,1-2c5.54,2.28,11.07,4.85,17.46.45-2.61-2.74-4.92-4.3-8.49-3.06-3,1-6,1.77-9,2.63C80.06,791.55,80,790.87,80,790.18Z"/><path class="cls-12" d="M78,800.16l-2,4c-.33.66-.65,1.33-1,2l4,8c-4-.67-7.49-1.6-7.15-7,.12-2-1.2-4-1.86-6l8-1Z"/><path class="cls-25" d="M96.12,739.4l6.89,6.66-2.94.25c-2.55-.29-6,.53-4.88-4.14Z"/><path class="cls-13" d="M78,800.15l-8,1c1.28-4.71,4.57-5.78,8.92-4.95,0,.65.05,1.3.07,2Z"/><path class="cls-17" d="M340.14,535.13l-4.9,6.31c3,2.76,6.48,6.16,10.17,9.36.88.76,2.37.82,3.58,1.2l-.66,5.84-1.68.44c-4.38-6.51-13.77-9.16-13.59-19.17l4.94-5.05Z"/><path class="cls-23" d="M338,534.06l-4.94,5.05-2,0L319,527.39l1.11-1.41C326.54,527.47,332.74,529.65,338,534.06Z"/><path class="cls-27" d="M453.26,804.08c-.77-4.25,2.64-3.43,4.88-4l4.76,1C459.58,804.09,457.12,806.45,453.26,804.08Z"/><path class="cls-21" d="M180.1,581.07c1.42-5,2.55-10.17,4.33-15.08,3.5-9.68,7.47-19.2,11-28.86,4.64-12.65,9.06-25.37,13.58-38.06l11.24,1.66C209.94,529.16,200,556.59,190,584Z"/><path class="cls-7" d="M258.05,554.09q1.51-4,3-8Q259.56,550.08,258.05,554.09Z"/><path class="cls-7" d="M260.57,545.89l2.19-5.39,1.38.58-2.31,5.34Z"/><path class="cls-7" d="M257.06,555.1c-.12.43-.24.87-.37,1.3l-.38-.25c.25-.35.49-.71.74-1.07Z"/><path class="cls-7" d="M258.05,554.09l-1,1v0Z"/><path class="cls-12" d="M383,358l.06-3Z"/><path class="cls-16" d="M409.08,202l-.43-.23.43.23Z"/><path class="cls-16" d="M381.76,269.93c.16-1.29.31-2.59.46-3.88l6.19.46-5.36-4.74,2,.11c4.69,1.44,9.24,2.66,12.58,7.06,1.47,1.93,5.42,1.81,8,3.11a71.61,71.61,0,0,1,7.49,4.93l-10.25-4-.65,1.38c1.63.9,3.24,1.85,4.9,2.68q45.69,22.88,91.36,45.8c1.87.94,3.19,2.95,4.77,4.46a.63.63,0,0,1-.15.75c-4.45-1.57-9.12-2.71-13.32-4.78C464.44,310.77,439.25,298,414,285.48,403.29,280.18,392.5,275.11,381.76,269.93Z"/><path class="cls-16" d="M449.1,295c6.49.35,11.94,2.8,16,8Z"/><path class="cls-29" d="M503.07,328a.63.63,0,0,0,.15-.75l12.11,5-.9,2Z"/><path class="cls-16" d="M435.1,288c3.92.48,8.2.26,10,5Z"/><path class="cls-16" d="M475.1,308c2.4.2,5.49-1,6,3Z"/><path class="cls-16" d="M413.1,277c2.39.21,5.47-.94,6,3Z"/><path class="cls-16" d="M469,305c2.41.25,5.57-1,6.12,3Z"/><path class="cls-16" d="M423.1,282c2.4.2,5.47-1,6,3Z"/><path class="cls-16" d="M429.1,285l6,3Z"/><path class="cls-16" d="M445.1,293l4,2Z"/><path class="cls-16" d="M419.1,280l4,2Z"/><path class="cls-16" d="M485,313l4.05,2Z"/><path class="cls-16" d="M481.1,311l2,1.11Z"/><path class="cls-16" d="M465.1,303l1.09,1Z"/><path class="cls-16" d="M467,304l1.2,1Z"/><path class="cls-14" d="M75,806.17c.33-.67.65-1.34,1-2,0,.67,0,1.34,0,2Z"/><path class="cls-6" d="M125.43,830.44l.36-.82c.27.12.7.18.77.38s-.2.53-.31.8Z"/><path class="cls-15" d="M398.13,215c-5.88.77-10,4.49-13.8,8.54-1.33,1.4-2.46,3-3.9,4.76l-6.28-5.14-1.16,1c1.41,1.66,2.59,3.61,4.27,4.93,4.91,3.87,4.56,4.62-.15,8.18s-7.92,2.24-11.93-.56c-1.66-1.16-4.15-1.12-6.26-1.63-3-5.41-5.88-10.91-9.07-16.22-2.42-4-5.23-7.82-7.87-11.71l6.58.88,1.07-1.25c-1.91-3.12-3.52-6.49-5.81-9.3-3.53-4.36-7.51-8.36-11.34-12.49-6.6-7.11-8.39-16.36-11.27-25.13l1.1-.11L347,178.06l14.2,11.77,20.93,15.22c.46,1.7.93,3.41,1.56,5.7l4.39.23c.4,5.71,2.82.84,4.31.82l5.75,2.33Z"/><path class="cls-4" d="M376.07,151a24.34,24.34,0,0,1,16,4q.51,4.49,1,9c-8.39-3.81-16.45-1.83-24.55,1.23-4.76,1.79-9.63,4-14.57,4.38-4.72.34-9.61-1.49-14.41-2.4-1.44-.28-2.85-.71-4.27-1.07l-1.22-.88c9.38-2.43,18.78-4.78,28.11-7.35,1.47-.41,2.66-1.83,4-2.79Z"/><path class="cls-27" d="M334.05,165.21l1.22.88L348.09,177l-1.1,1.11-24.68-18.39c-.08-.51-.15-1-.22-1.52l1.9.78,3.95,1.12Z"/><path class="cls-27" d="M382.12,205.05l-20.93-15.22,2-1.92c6,4.46,12,8.84,17.86,13.45C381.84,202,381.77,203.79,382.12,205.05Z"/><path class="cls-24" d="M363.16,187.91l-2,1.92L347,178.06l1.1-1.11Z"/><path class="cls-15" d="M180.11,653.49l11.39,13-1,1.89c-1.58-.3-3.37-.21-4.69-1a14.1,14.1,0,0,1-7.57-12.56Z"/><path class="cls-15" d="M183.05,670.12l.41.23-.42-.22Z"/><path class="cls-7" d="M191,490c.68,1.11,2,2.23,1.94,3.32-.11,5.53-.39,11.07-1,16.56-.19,1.69.58,5.2-3.68,4-.63-.17-2.06,2.47-4.27,3.51.34-2.79.68-5.59,1-8.38l1.08-5,2-6C189,495.4,190,492.71,191,490Z"/><path class="cls-17" d="M188.07,498.09l-2,6c-1.28-1-3.69-2.15-3.63-3.09C182.69,497.57,185.63,498,188.07,498.09Z"/><path class="cls-21" d="M385,261.88l-2-.1L379,259a8,8,0,0,1,.84-2.71c4.71-5.82,9.51-11.56,14.29-17.32l1.95-3h0l1-1h0l3.07-3.63c5,.63,5.4,4.89,5.86,8.87.53,4.57.72,9.18,1.05,13.78q-1,5-2,10.07c-5.48.7-9.39-2.21-13.52-5.25C388.41,256.52,386.53,259.37,385,261.88ZM404.81,254h-.4v6.69h.4Z"/><path class="cls-29" d="M308.61,114.92q-2.87,4.17-5.72,8.33l-1.58-.14-1.16-.14c-4.37.53-8.74,1.1-13.13,1.5-.43,0-.95-1-1.43-1.53L293,112.85c2.49-.81,4.94-2,7.5-2.28,1.14-.13,2.49,1.49,3.75,2.32Z"/><path class="cls-29" d="M286.06,141.94l-.9-10.74c4.17-1.77,8.09-5,13-2.21l1.49,1c-.55,1.31-1.11,2.61-1.66,3.91Z"/><path class="cls-29" d="M281.24,148l-5.1,12.78c-.46-3.95-1.2-7.89-1.3-11.84-.12-4.9,1.34-9.4,5.67-14C280.79,139.94,281,144,281.24,148Z"/><path class="cls-15" d="M298.19,129c-4.94-2.79-8.86.44-13,2.21q.21-4.12.43-8.26c.48.54,1,1.57,1.43,1.53,4.39-.4,8.76-1,13.13-1.5Q299.16,126,298.19,129Z"/><path class="cls-25" d="M322.09,158.15c.07.51.14,1,.22,1.52l-1.1.11L302.06,147l-2.92-1.1v-.07L294.2,143c.3-.66.61-1.32.92-2l1.92-.78L299,142c6.58,4.12,13.2,8.16,19.7,12.4C320.07,155.25,321,156.87,322.09,158.15Z"/><path class="cls-10" d="M297,140.2l-1.92.78-3.05,2-.05,0-5.91,5q0-3-.05-6.07l12-8Z"/><path class="cls-7" d="M286.11,148l5.91-5q-2.06,4.46-4.13,8.91l-1.52-.61C286.28,150.18,286.19,149.1,286.11,148Z"/><path class="cls-7" d="M292.07,142.93l3.05-2c-.31.66-.62,1.32-.92,2Z"/><path class="cls-7" d="M287.08,154l.22-.42-.23.41Z"/><path class="cls-5" d="M225.3,386.68c-.28-.13-.71-.18-.79-.38s.2-.54.32-.82c.27.12.71.18.78.38S225.42,386.4,225.3,386.68Z"/><path class="cls-22" d="M82.18,779.56q2.46-8.71,4.91-17.42l1.18.15c-2.5,4-.76,6.53,2.69,8.91,5.2,3.59,10,.64,15-.36v4.83h-8l-.19.81,4.5,1.51-2.44,3.63C94.43,776.72,88.46,776.86,82.18,779.56Z"/><path class="cls-24" d="M105.93,770.84c-5,1-9.77,3.95-15,.36-3.45-2.38-5.19-4.91-2.69-8.91,7-1.29,13,.42,17.69,6Z"/><path class="cls-27" d="M82.18,779.56c6.28-2.7,12.25-2.84,17.63,2.06l-5.94,3.47L82.3,781.94Z"/><path class="cls-14" d="M106,768.27c-4.69-5.56-10.68-7.27-17.69-6l-1.18-.15,2.18-2.28,8.26-.49-6.43-5.83L93,749.15l5.09,0c-.3,1.76-4.66-.76-3.11,2.95l5.35,6.48c2.29,2.75,4.59,5.5,6.81,8.31C107.2,767,106.37,767.81,106,768.27Z"/><path class="cls-28" d="M100.32,758.62,95,752.14a21.55,21.55,0,0,1,2.92.29c5.07,1.16,10.14,2.39,15.2,3.59l.8.26c0,.51,0,1,.08,1.52l-4.89.71Z"/><path class="cls-14" d="M109.08,758.51l4.89-.71C112.84,761.51,111.11,761,109.08,758.51Z"/><path class="cls-28" d="M442.22,776.16c-.32,3.49,0,7.64-5.72,5.7.37-2.17.21-4.65,1.25-6.43C439.16,773,441.19,773,442.22,776.16Z"/><path class="cls-24" d="M442.06,759.17c2.74,4.3-.44,6.43-2.94,9-3.74-4.58-2.5-8,2.95-9Z"/><path class="cls-25" d="M113.09,756c-5.06-1.2-10.13-2.43-15.2-3.59a21.55,21.55,0,0,0-2.92-.29c-1.55-3.71,2.81-1.19,3.11-2.95C105,747.33,109.06,751.61,113.09,756Z"/><path class="cls-25" d="M121.35,747l-5.41,7.47c-1.64-2-3-3.66-4.77-5.82Z"/><path class="cls-14" d="M100.07,746.31l2.94-.25Z"/><path class="cls-11" d="M394.13,239c-4.78,5.76-9.58,11.5-14.29,17.32A8,8,0,0,0,379,259l-.81,0-1.13,1,0,0-9.1,4-1.89-11,15-13.94c-1.39,2.26-2.79,4.52-4.18,6.79l.9,1.16,14.13-8.1Z"/><path class="cls-7" d="M394.13,239l-2.13-.1,4.08-2.9Z"/><path class="cls-7" d="M397.08,235l-1,1Z"/><path class="cls-27" d="M442.13,797c.71-.57,1.33-1.5,1.93-1.48,2.34.06,4.67.42,7,.66-.38.77-.65,2.1-1.15,2.2C447.33,798.84,444.27,801.34,442.13,797Z"/><path class="cls-28" d="M83.08,800.18a2.46,2.46,0,0,0,.93-.24H97c-4.46,3.6-5,3.65-15.81,1.81Z"/><path class="cls-13" d="M90.7,808.31l-.67.45-.49-1c.26-.09.58-.31.78-.23S90.57,808,90.7,808.31Z"/><path class="cls-13" d="M86.3,806.4v-1.49h.42v1.49Z"/><path class="cls-20" d="M320.87,117.79l.86-1.14c-.18.46-.37.93-.55,1.4Z"/><path class="cls-15" d="M277.12,162.85l.38.54L277,163Z"/><path class="cls-10" d="M365.82,511.25c-.13,0-.34.14-.37.1a1.15,1.15,0,0,1-.14-.43c.13,0,.33-.13.37-.09A1.39,1.39,0,0,1,365.82,511.25Z"/><path class="cls-11" d="M206.92,547l1.56-6.38,1.22.26c-.54,2.13-1.09,4.26-1.63,6.39Z"/><path class="cls-11" d="M200.09,566c.39-1.33.77-2.65,1.15-4l.82.17c-.29,1.34-.59,2.68-.88,4Z"/><path class="cls-11" d="M204.34,555.34v-1.51h.42v1.51Z"/><path class="cls-11" d="M211.5,535.42l-.2-.31.46-.25a.85.85,0,0,1,0,.38C211.77,535.32,211.61,535.36,211.5,535.42Z"/><path class="cls-11" d="M210.47,538.49l-.17-.58.38-.11Z"/><path class="cls-3" d="M195.67,578.79l.13.35-.52.11a.92.92,0,0,1,.08-.38C195.41,578.81,195.56,578.82,195.67,578.79Z"/><path class="cls-10" d="M197.34,503.32v-1.5h.41v1.5Z"/><path class="cls-17" d="M343,419l-1.11,1.05h-4.81c0-1.67,0-3.35,0-5l1.95-2c1-3.27,1.88-6.58,3.07-9.78a41.73,41.73,0,0,1,2.81-5.27Q344,408.51,343,419Z"/><path class="cls-21" d="M350.4,361.15a13.14,13.14,0,0,0,2.5-1.47c2.87-2.64,5.68-3.82,8.84-.39.49.52,1.51.55,2.28.8-1.37,4.24-.95,9.69-7.35,10.53-.61.08-1.05,1.55-1.57,2.38l-.06.06c-3.42,3.09-3.22,4,1.38,5.52l6.7-.56c-.38,1.31-.75,2.62-1.13,3.93-5.84,1.69-8.05.81-10.72-4.48-.88-1.75-1.49-3.63-2.22-5.45Z"/><path class="cls-11" d="M349.05,372c.73,1.82,1.34,3.7,2.22,5.45,2.67,5.29,4.88,6.17,10.72,4.48-.29,1.36-.57,2.72-.86,4.09L358,390.93c-5,2.17-7.32-1.39-9.79-4.59-1.06-1.38-2.08-2.8-3.11-4.19C346.93,379,344.22,374,349.05,372Z"/><path class="cls-3" d="M339.06,413.06l-1.95,2Z"/><path class="cls-5" d="M284,372l3.45.77L286,374.08Z"/><path class="cls-13" d="M363.12,378l-6.7.56c-4.6-1.48-4.8-2.43-1.38-5.52,2.11,1.95,2.11,1.95,3.41-1.65L355.1,373c.52-.83,1-2.3,1.57-2.38,6.4-.84,6-6.29,7.35-10.53l2.08-.13Q364.6,369,363.12,378Z"/><path class="cls-24" d="M327.94,160.05,324,158.93c.13-2.21.27-4.42.4-6.62l.43-.07c.59,1.48,1.17,3,1.86,4.71h5.4l15.23,1.66,0,1.44Z"/><path class="cls-7" d="M297,140.2l1-6.27c.55-1.3,1.11-2.6,1.66-3.91H303c1.61,4.1-.69,10.9-4,11.94Z"/><path class="cls-27" d="M301.31,123.11l1.58.14c2.73,1.88,5.46,3.75,8.15,5.68,0,0-.55.82-.85,1.26-1.76-.46-3.52-1-5.3-1.36C301.73,128.13,300.35,126.37,301.31,123.11Z"/><path class="cls-25" d="M301.31,123.11c-1,3.26.42,5,3.58,5.72,1.78.4,3.54.9,5.3,1.36L303,130h-3.35l-1.49-1q1-3,2-6Z"/><path class="cls-20" d="M332.08,157h-5.4c-.69-1.75-1.27-3.23-1.86-4.71.91-.79,1.79-1.61,2.72-2.37s1.67-1.26,2.51-1.88c.9,2.12,1.92,4.2,2.62,6.38C332.9,155.09,332.3,156.08,332.08,157Z"/><path class="cls-19" d="M376.07,151l-9.94,4.1,9-5.74Z"/><path class="cls-19" d="M378.79,149.58c0-.12.09-.34.13-.35a1.41,1.41,0,0,1,.43.13c-.05.12-.09.35-.13.35A1.41,1.41,0,0,1,378.79,149.58Z"/><path class="cls-22" d="M342.86,148.41l-3.15-3.22c1.43-5,3.54-6.38,7.59-4.49,1.49.7,2.47,2.51,3.69,3.81a42.55,42.55,0,0,1-4.77,3.43C345.29,148.45,344,148.28,342.86,148.41Z"/><path class="cls-18" d="M322.07,106c-.18.86-.35,1.71-.53,2.57l-1.26-.46,1.78-2.12Z"/><path class="cls-5" d="M376.12,555.07l-1.06,2Z"/><path class="cls-5" d="M255,313.1l0,1.95c-6.75,5.82-13.38,11.78-20.35,17.31-1.07.85-3.77,0-5.59-.51a44.56,44.56,0,0,1-5.78-2.52l-.48-1.62,28.37-12.34L238.06,307C244.22,305.61,249.21,310.66,255,313.1Z"/><path class="cls-18" d="M281.12,223.82l3,4.24Z"/><path class="cls-13" d="M356.19,303.66l1.91,2.52c.59,1.07.94,2.76,1.81,3.09,6.32,2.41,12.75,4.55,19.14,6.77q14.67,7.31,29.33,14.6a37.35,37.35,0,0,0,3.7,1.38c-.48,2.65-1,5.29-1.39,7.64L400.09,337c-.32,0-.65-.05-1-.09l-8.05-4.31-.69,1.31a14,14,0,0,0,2,1.73c1.91,1.16,5.05,1.87,3.19,4.93-1.4,2.31-3,5.43-7,3.32-2.95-1.53-5.57-1.6-5.14,3.28.08.84-2.41,2.67-3.77,2.73-4.21.18-8,0-11.09,4.12-.76,1-5.78,0-7.85-1.43-6.21-4.4-11.92-9.5-17.86-14.28-1.5-1.21-3.13-2.27-3.5-2.53l-7.19,2.31c-.62-3-1.23-6-1.85-9l1.73-1.31-5.1-1.35c0,1.71-.57,3.65.05,5.06,1.44,3.25,1.29,5.5-2.47,6.5-8.58,2.28-17.17,4.49-25.75,6.74-1.93.5-3.85,1-5.78,1.53-7.26,2-7.26,2-9.94-4.17l0,0-1-3.08-1-.91q-1.12-10-2.24-20A98.46,98.46,0,0,0,289,318c10.61-1.17,21.21-2.45,31.78-4,3.22-.46,6.29-2,9.47-2.84,3.58-1,7.27-1.54,10.78-2.7,2.15-.71,4-2.21,6-3.36C350.05,304.34,353.61,307.18,356.19,303.66Z"/><path class="cls-12" d="M282.07,339l1,3.08Z"/><path class="cls-10" d="M489.53,341.09c-4.4,2.17-7.32-2.47-11.07-3.29-.63-.14-.88-2.05-1.31-3.14l1.15-1,11.57,5.8C489.76,340,489.64,340.54,489.53,341.09Z"/><path class="cls-10" d="M496.39,345c1.22-.15,2.61-.76,3.64-.38a40.71,40.71,0,0,1,7.09,3.52c.75.46,1,1.74,1.46,2.64-1,.17-2.18.77-2.95.43-3.16-1.38-6.19-3-9.26-4.6Z"/><path class="cls-12" d="M400.09,337l10.6,2.67c.43-2.35.91-5,1.39-7.64,2.91.34,6.05.27,7,4-.09,6.55-.67,7.06-8,7l0,0L408,342c-.28,0-.57,0-.86,0l-1,0C403.84,340.66,400.14,341,400.09,337Z"/><path class="cls-5" d="M379.05,316c-6.39-2.22-12.82-4.36-19.14-6.77-.87-.33-1.22-2-1.81-3.09l.92-.37L376.07,308C374.22,311.73,379,313,379.05,316Z"/><path class="cls-7" d="M411.05,343c7.36.07,7.94-.44,8-7l9.92,3.7c-2.69,2.28-4.59,4-6.66,5.59C419,347.83,415.25,347,411.05,343Z"/><path class="cls-13" d="M441.12,347.12l.48,1.39-3.49-1.37Z"/><path class="cls-7" d="M408,342l3.13,1Z"/><path class="cls-13" d="M455.07,352.74l-1.1-.65Z"/><path class="cls-7" d="M406.14,342l1,0Z"/><path class="cls-16" d="M390.07,314c-5-.9-6.1-5.32-8-9C387.05,306,390.41,308.35,390.07,314Z"/><path class="cls-8" d="M378.19,259l.81,0,4.06,2.76,5.35,4.73-6.19-.46c-1.48-2.21-6.34-1.56-5.13-6.06l0,0Z"/><path class="cls-11" d="M330.93,193l-12.92-9c2.64-.8,5.49-3.74,7.95-.49C328.08,186.36,329.31,189.85,330.93,193Z"/><path class="cls-3" d="M299.14,145.87l2.92,1.1Z"/><path class="cls-11" d="M366.06,253l-1.2-.89Z"/><path class="cls-13" d="M441.6,348.54c.64.79,1.29,1.57,1.94,2.35C442.89,350.11,442.24,349.33,441.6,348.54Z"/><path class="cls-27" d="M91.1,753.54l6.43,5.83-8.26.49Z"/><path class="cls-24" d="M80.08,792.23c3-.86,6.06-1.6,9-2.63,3.57-1.24,5.88.32,8.49,3.06-6.39,4.4-11.92,1.83-17.46-.45Z"/><path class="cls-18" d="M404.81,254v6.69h-.4v-6.69Z"/><path class="cls-21" d="M378.19,259l-1.13,1Z"/><path class="cls-21" d="M355.1,373l3.35-1.59c-1.3,3.6-1.3,3.6-3.41,1.65Z"/></g></svg>